<?xml version="1.0" encoding="UTF-8"?>
<svg id="Layer_1" xmlns="http://www.w3.org/2000/svg" viewBox="0 0 11824.87 425.24">
  <defs>
    <style>
      .cls-1 {
        fill: #282a2b;
      }

      .cls-2 {
        fill: #16b3dc;
      }

      .cls-3 {
        fill: #fff;
      }

      .cls-4 {
        fill: #cd202d;
      }

      .cls-5 {
        fill: #466eb5;
      }

      .cls-6 {
        fill: #f9ed2d;
      }

      .cls-7 {
        fill: #e5312e;
      }

      .cls-8 {
        fill: #51b851;
      }

      .cls-9 {
        fill: #f0ea4f;
      }

      .cls-10 {
        fill: #2f4794;
      }

      .cls-11 {
        fill: #ee2d28;
      }

      .cls-12 {
        fill: #298f44;
      }

      .cls-13 {
        fill: #db312d;
      }

      .cls-14 {
        fill: #2e3b8e;
      }

      .cls-15 {
        fill: #ef414a;
      }

      .cls-16 {
        fill: #f89920;
      }

      .cls-17 {
        fill: #38aa49;
      }

      .cls-18 {
        fill: #72c0eb;
      }

      .cls-19 {
        fill: #fcf5f9;
      }
    </style>
  </defs>
  <g>
    <rect class="cls-2" x=".04" y="2.94" width="667.77" height="46.95"/>
    <rect class="cls-3" x=".04" y="49.82" width="667.77" height="46.95"/>
    <rect class="cls-2" x=".04" y="96.56" width="667.77" height="46.95"/>
    <rect class="cls-3" x=".04" y="143.42" width="667.77" height="46.95"/>
    <rect class="cls-2" x=".04" y="190.28" width="667.77" height="46.97"/>
    <rect class="cls-3" x=".04" y="237.17" width="667.77" height="46.95"/>
    <rect class="cls-2" x=".04" y="284.04" width="667.77" height="46.95"/>
    <rect class="cls-3" x=".04" y="330.77" width="667.77" height="46.96"/>
    <rect class="cls-2" x=".04" y="377.65" width="667.77" height="46.95"/>
    <rect class="cls-2" x="0" y="2.91" width="229.03" height="234.31"/>
    <rect class="cls-3" x="0" y="96.54" width="229.03" height="46.98"/>
    <rect class="cls-3" x="91.57" y="2.88" width="45.92" height="234.3"/>
  </g>
  <g>
    <rect class="cls-3" x="690.03" width="671.9" height="421.73"/>
    <g>
      <g>
        <polygon class="cls-1" points="778.78 97.97 849.12 27.22 864.84 42.84 794.52 113.61 778.78 97.97"/>
        <polygon class="cls-1" points="801.4 120.96 871.73 50.19 887.47 65.83 817.14 136.59 801.4 120.96"/>
        <polygon class="cls-1" points="823.35 142.98 893.66 72.23 909.4 87.85 839.08 158.62 823.35 142.98"/>
      </g>
      <g>
        <g>
          <polygon class="cls-1" points="1181.14 296 1208.76 268.18 1224.5 283.83 1196.85 311.7 1181.14 296"/>
          <polygon class="cls-1" points="1154.16 354.58 1138.41 338.94 1165.46 311.7 1181.14 327.38 1154.16 354.58"/>
        </g>
        <g>
          <polygon class="cls-1" points="1204 318.76 1231.37 291.19 1247.09 306.82 1219.68 334.45 1204 318.76"/>
          <polygon class="cls-1" points="1176.81 377.55 1161.08 361.92 1188.31 334.45 1204 350.15 1176.81 377.55"/>
        </g>
        <g>
          <polygon class="cls-1" points="1241.72 356.36 1226.02 340.67 1253.29 313.21 1269.01 328.85 1241.72 356.36"/>
          <polygon class="cls-1" points="1198.77 399.62 1183.03 383.97 1210.38 356.43 1226.08 372.1 1198.77 399.62"/>
        </g>
      </g>
      <g>
        <g>
          <polygon class="cls-1" points="1243.59 67.4 1271.42 95.03 1255.78 110.78 1227.9 83.1 1243.59 67.4"/>
          <polygon class="cls-1" points="1185.01 40.42 1200.67 24.68 1227.9 51.72 1212.22 67.4 1185.01 40.42"/>
        </g>
        <polygon class="cls-1" points="1162.06 63.07 1177.7 47.33 1205.15 74.58 1220.85 90.28 1248.39 117.62 1232.77 133.36 1205.15 105.96 1189.47 90.28 1162.06 63.07"/>
        <g>
          <polygon class="cls-1" points="1183.23 127.97 1198.93 112.3 1226.39 139.53 1210.76 155.27 1183.23 127.97"/>
          <polygon class="cls-1" points="1139.99 85.04 1155.62 69.29 1183.19 96.65 1167.47 112.33 1139.99 85.04"/>
        </g>
      </g>
      <g>
        <polygon class="cls-1" points="824.25 282.83 839.89 267.09 867.15 294.13 882.83 309.83 910.67 337.44 895.02 353.17 867.15 325.51 851.46 309.83 824.25 282.83"/>
        <g>
          <polygon class="cls-1" points="860.09 332.67 887.65 360.04 872 375.78 844.39 348.37 860.09 332.67"/>
          <polygon class="cls-1" points="801.29 305.48 816.93 289.73 844.39 316.99 828.7 332.67 801.29 305.48"/>
        </g>
        <polygon class="cls-1" points="779.23 327.44 794.86 311.71 822.42 339.06 838.17 354.7 865.63 381.96 849.99 397.69 822.47 370.39 806.72 354.74 779.23 327.44"/>
      </g>
    </g>
    <g>
      <path class="cls-10" d="M1147.21,207.44c0,66.03-53.51,119.57-119.56,119.57s-119.57-53.54-119.57-119.57,53.53-119.58,119.57-119.58,119.56,53.53,119.56,119.58Z"/>
      <path class="cls-13" d="M1146.6,207.45c0,5.69-.38,11.24-1.21,16.72-3.48-23.69-16.41-66.43-65.38-67.25-35.8,0-48.08,15.91-55.63,34.69-10.94,27.15-12.12,60.21-60.2,60.21-35.35,0-50.66-19.96-56.66-42.6-.08-.58-.08-1.18-.08-1.77,0-20.28,5.04-39.36,13.99-56.15,20.12-37.73,59.84-63.46,105.62-63.46,65.97,0,119.54,53.55,119.54,119.61Z"/>
    </g>
  </g>
  <g>
    <g>
      <rect class="cls-15" x="2076.41" y="3.28" width="671.24" height="420.83"/>
      <rect class="cls-3" x="2245.59" y="3.25" width="334.73" height="420.77"/>
    </g>
    <polygon class="cls-15" points="2402.23 286.44 2402.23 361.08 2415.2 361.08 2415.2 284.27 2484.44 299.43 2475.81 275.63 2542.84 212.89 2524.48 209.64 2536.38 164.22 2497.44 171.78 2488.77 150.15 2453.07 185.84 2463.87 102.56 2439 113.36 2409.8 62.54 2381.66 115.54 2353.56 99.3 2367.63 185.84 2329.76 146.9 2326.53 170.7 2286.49 162.04 2299.5 205.31 2278.92 212.89 2343.83 271.29 2334.1 295.09 2402.23 286.44"/>
  </g>
  <g>
    <rect class="cls-13" x="6937.67" y="4.69" width="668.78" height="419.91"/>
    <polygon class="cls-12" points="7606.45 140.99 7606.45 300.83 7344.83 299.92 7344.63 299.92 7330.24 299.84 7121.86 424.6 6937.67 424.6 6937.67 4.69 7091.27 4.69 7319.62 137.3 7606.45 140.99"/>
    <polygon class="cls-3" points="7606.45 114.66 7606.45 155.81 7321.12 155.81 7070.15 4.69 7156.74 4.69 7339.48 114.66 7606.45 114.66"/>
    <polygon class="cls-1" points="7138.46 217.54 6937.67 351.61 6937.67 91.69 7138.46 217.54"/>
    <polygon class="cls-10" points="7606.45 293.25 7606.45 424.6 7140.03 424.6 7344.63 299.92 7344.83 299.92 7351.55 295.72 7606.45 293.25"/>
    <polygon class="cls-3" points="7606.45 277.2 7606.45 318.35 7339.48 318.35 7162.96 424.6 7076.32 424.6 7321.12 277.2 7606.45 277.2"/>
    <polygon class="cls-6" points="7194.49 215.56 6937.67 372.83 6937.67 320.34 7109.04 215.39 6937.67 109.56 6937.67 56.9 7194.49 215.56"/>
  </g>
  <g>
    <rect class="cls-3" x="6241.12" y="2.05" width="674.06" height="423.09"/>
    <path class="cls-13" d="M6734.47,213.6c0,86.33-69.99,156.31-156.32,156.31s-156.31-69.98-156.31-156.31,69.99-156.31,156.31-156.31,156.32,69.98,156.32,156.31Z"/>
  </g>
  <g>
    <rect class="cls-11" x="5547.62" y="2.88" width="672.27" height="421.47"/>
    <polygon class="cls-3" points="5685.76 121.72 5704.12 173.35 5660.34 140.94 5660.26 140.71 5660.19 140.94 5616.37 173.35 5634.73 121.72 5635.24 121.37 5634.97 121.37 5589.89 90.89 5644.16 90.97 5659.04 39.03 5675.78 90.89 5675.7 91.05 5675.86 90.97 5730.64 90.89 5685.45 121.37 5685.29 121.37 5685.76 121.72"/>
    <g>
      <g>
        <polygon class="cls-3" points="5806.19 174.38 5809.27 163.64 5812.7 174.22 5809.62 184.17 5806.19 174.38"/>
        <polygon class="cls-3" points="5812.7 174.22 5823.91 174.22 5814.67 180.46 5804.29 180.26 5812.7 174.22"/>
        <polygon class="cls-3" points="5814.71 180.53 5818.5 191.07 5809.54 184.48 5806.27 174.57 5814.71 180.53"/>
        <polygon class="cls-3" points="5806.35 174.22 5795.18 174.22 5804.37 180.46 5814.79 180.26 5806.35 174.22"/>
        <polygon class="cls-3" points="5804.33 180.53 5800.58 191.07 5809.5 184.48 5812.78 174.57 5804.33 180.53"/>
      </g>
      <g>
        <polygon class="cls-3" points="5755.63 227.46 5761.63 218.03 5761.94 229.16 5756.18 237.81 5755.63 227.46"/>
        <polygon class="cls-3" points="5761.94 229.16 5772.68 232.28 5762.06 235.71 5752.15 232.56 5761.94 229.16"/>
        <polygon class="cls-3" points="5762.1 235.75 5762.69 246.92 5756.02 238.08 5755.67 227.66 5762.1 235.75"/>
        <polygon class="cls-3" points="5755.82 227.38 5745.09 224.23 5752.19 232.79 5762.22 235.52 5755.82 227.38"/>
        <polygon class="cls-3" points="5752.11 232.83 5745.56 241.91 5755.98 238.08 5761.9 229.52 5752.11 232.83"/>
      </g>
      <g>
        <polygon class="cls-3" points="5819.45 108.85 5828.02 101.63 5824.98 112.33 5816.88 118.88 5819.45 108.85"/>
        <polygon class="cls-3" points="5824.98 112.37 5834.29 118.57 5823.16 118.6 5814.64 112.64 5824.98 112.37"/>
        <polygon class="cls-3" points="5823.16 118.68 5820.44 129.54 5816.69 119.08 5819.41 109.05 5823.16 118.68"/>
        <polygon class="cls-3" points="5819.69 108.82 5810.41 102.58 5814.59 112.88 5823.36 118.49 5819.69 108.82"/>
        <polygon class="cls-3" points="5814.52 112.88 5805.56 119.55 5816.65 119.04 5824.86 112.68 5814.52 112.88"/>
      </g>
      <g>
        <polygon class="cls-3" points="5787.91 47.24 5793.99 37.85 5794.19 48.98 5788.35 57.58 5787.91 47.24"/>
        <polygon class="cls-3" points="5794.19 49.02 5804.89 52.25 5794.27 55.53 5784.36 52.29 5794.19 49.02"/>
        <polygon class="cls-3" points="5794.27 55.61 5794.78 66.78 5788.19 57.82 5787.95 47.44 5794.27 55.61"/>
        <polygon class="cls-3" points="5788.11 47.16 5777.41 43.89 5784.4 52.49 5794.43 55.33 5788.11 47.16"/>
        <polygon class="cls-3" points="5784.32 52.57 5777.69 61.53 5788.15 57.82 5794.15 49.33 5784.32 52.57"/>
      </g>
    </g>
  </g>
  <g>
    <rect class="cls-10" x="1382.42" y="2.14" width="671.9" height="421.25"/>
    <rect class="cls-11" x="1731.23" y="2.14" width="323.09" height="421.25"/>
    <rect class="cls-3" x="1605.77" y="2.74" width="227.04" height="418.98"/>
  </g>
  <g>
    <rect class="cls-5" x="4852.15" y="2.88" width="671.9" height="421.33"/>
    <g>
      <rect class="cls-9" x="4852.15" y="174.12" width="671.9" height="72.65"/>
      <rect class="cls-9" x="5018.83" y="2.88" width="72.66" height="421.33"/>
      <rect class="cls-9" x="5033.31" y="2.88" width="43.75" height="421.33"/>
      <rect class="cls-9" x="4852.15" y="185.81" width="671.9" height="49.26"/>
    </g>
  </g>
  <g>
    <rect class="cls-10" x="4160.67" y="2.14" width="671.9" height="421.25"/>
    <rect class="cls-11" x="4509.48" y="2.14" width="323.09" height="421.25"/>
    <rect class="cls-3" x="4384.02" y="2.74" width="227.04" height="418.98"/>
  </g>
  <g>
    <rect class="cls-10" x="3469.08" y="3.19" width="671.9" height="419.94"/>
    <g>
      <polygon class="cls-11" points="3917.65 180.42 3927.21 207.36 3904.37 190.48 3904.33 190.33 3904.3 190.48 3881.44 207.36 3891.01 180.42 3891.28 180.25 3891.14 180.25 3867.61 164.33 3895.92 164.39 3903.68 137.27 3912.44 164.33 3912.38 164.43 3912.47 164.39 3941.07 164.33 3917.47 180.25 3917.39 180.25 3917.65 180.42"/>
      <path class="cls-3" d="M3930.42,211.69l-26.09-19.28-26.11,19.28,10.97-30.85-26.75-18.1,32.29.07,8.84-30.94,10.03,30.94,32.62-.07-26.77,18.07,10.97,30.88ZM3892.32,181.46l-7.66,21.57,18.22-13.45,1.04-5.24,1.8,5.17,18.28,13.52-7.65-21.58-3.99-2.61,4.62-.15,18.93-12.76-23.09.04-4.25,1.89,2.17-3.7-6.95-21.47-6.66,23.3-24.35-.05,18.86,12.74h4.98l-4.28,2.79Z"/>
    </g>
    <g>
      <polygon class="cls-11" points="3996.12 101.96 4005.69 128.9 3982.85 112 3982.8 111.85 3982.77 112 3959.9 128.9 3969.49 101.96 3969.75 101.79 3969.62 101.79 3946.09 85.86 3974.39 85.91 3982.16 58.79 3990.9 85.86 3990.87 85.95 3990.95 85.91 4019.53 85.86 3995.95 101.79 3995.87 101.79 3996.12 101.96"/>
      <path class="cls-3" d="M4008.9,133.24l-26.1-19.31-26.13,19.31,11-30.87-26.75-18.09,32.28.05,8.86-30.95,9.99,30.95,32.64-.05-26.76,18.07,10.97,30.89ZM3970.8,102.98l-7.67,21.58,18.26-13.5,1.39-5.19,1.45,5.19,18.26,13.5-7.67-21.59-3.81-2.59,4.46-.15,18.92-12.78-23.04.04-3.06,1.53.98-3.15-6.99-21.66-6.66,23.29-24.34-.05,18.86,12.76h4.81l-4.12,2.77Z"/>
    </g>
    <g>
      <polygon class="cls-11" points="3998.9 352.03 4010.45 384.52 3982.9 364.15 3982.85 363.99 3982.79 364.15 3955.25 384.52 3966.8 352.03 3967.1 351.83 3966.96 351.83 3938.57 332.65 3972.71 332.72 3982.08 300.01 3992.62 332.65 3992.58 332.75 3992.67 332.72 4027.14 332.65 3998.71 351.83 3998.62 351.83 3998.9 352.03"/>
      <path class="cls-3" d="M4013.67,388.86l-30.81-22.79-30.81,22.79,12.95-36.45-31.59-21.35,38.13.08,10.46-36.54,11.8,36.54,38.52-.08-31.61,21.33,12.97,36.47ZM3968.11,353.04l-9.65,27.13,22.97-16.99,1.22-3.89,1.55,3.85,23.03,17.03-9.66-27.15-3.55-2.58,4.17-.19,23.77-16.03-28.97.05-3.08,1.38,1.04-3.04-8.79-27.21-8.26,28.88-30.16-.06,23.7,16.02h4.66l-3.98,2.79Z"/>
    </g>
    <g>
      <polygon class="cls-11" points="4074.17 179.98 4083.74 206.94 4060.88 190.03 4060.85 189.9 4060.79 190.03 4037.96 206.94 4047.53 179.98 4047.78 179.82 4047.67 179.82 4024.12 163.91 4052.45 163.95 4060.19 136.83 4068.96 163.91 4068.91 164 4069 163.95 4097.58 163.91 4073.99 179.82 4073.9 179.82 4074.17 179.98"/>
      <path class="cls-3" d="M4034.75,211.28l10.97-30.88-26.75-18.07,32.3.04,8.83-30.95,10.02,30.95,32.63-.04-26.77,18.04,10.97,30.91-26.11-19.33-26.1,19.33ZM4062.28,189.09l18.25,13.5-7.64-21.55-4.34-2.64,4.95-.15,18.92-12.76-23,.03-4.47,2.48,2.31-4.24-6.96-21.51-6.65,23.29-24.36-.04,18.88,12.74h4.81l-4.14,2.77-7.66,21.59,18.35-13.6,1.77-3.82.98,3.92Z"/>
    </g>
    <g>
      <polygon class="cls-10" points="3800.67 4.46 3800.67 211.72 3800.64 211.76 3470.04 211.76 3470.04 4.46 3800.67 4.46"/>
      <g>
        <polygon class="cls-19" points="3800.67 190.15 3800.67 211.72 3800.64 211.76 3766.22 211.76 3664.74 148.15 3654.58 141.76 3642.61 134.24 3638.58 131.72 3626.38 124.08 3621.84 121.2 3618.03 118.84 3610.35 114.05 3607.86 112.47 3604.13 110.16 3568.1 87.53 3551.89 77.38 3470.04 26.06 3470.04 4.46 3470.31 4.03 3470.97 4.46 3504.45 4.46 3607.86 69.29 3618.03 75.65 3620.75 77.38 3636.95 87.53 3638.58 88.53 3644.8 92.45 3654.58 98.58 3656.25 99.63 3664.74 104.95 3673.04 110.16 3695.29 124.08 3711.51 134.24 3800.67 190.15"/>
        <polygon class="cls-11" points="3800.7 211.11 3800.77 211.89 3778.66 211.76 3664.74 140.35 3655.04 134.24 3654.58 133.96 3644.8 127.82 3638.86 124.08 3628.05 117.31 3618.03 111.06 3616.61 110.16 3610.35 106.21 3607.86 104.68 3580.53 87.53 3564.36 77.38 3470.04 18.22 3470.04 3.98 3470.31 4.03 3470.97 4.46 3587.27 77.38 3603.44 87.53 3607.86 90.29 3618.03 96.68 3621.84 99.07 3628.05 102.97 3639.51 110.16 3654.58 119.57 3656.25 120.65 3661.78 124.08 3664.74 125.96 3677.95 134.24 3800.7 211.11"/>
      </g>
      <g>
        <polygon class="cls-19" points="3800.67 8.55 3800.67 30.13 3725.27 77.38 3709.11 87.53 3673.04 110.16 3664.74 115.31 3656.25 120.65 3654.58 121.7 3650.76 124.08 3644.8 127.82 3638.58 131.72 3634.56 134.24 3618.03 144.6 3607.86 150.98 3510.9 211.76 3470.04 211.76 3470.04 194.21 3565.7 134.24 3581.87 124.08 3604.13 110.16 3607.86 107.8 3610.35 106.21 3618.03 101.42 3621.84 99.07 3638.58 88.53 3640.21 87.53 3654.58 78.51 3656.42 77.38 3664.74 72.14 3772.72 4.46 3798.07 4.46 3800.67 8.55"/>
        <polygon class="cls-11" points="3799.82 9.61 3691.75 77.38 3675.55 87.53 3664.74 94.31 3656.25 99.63 3654.58 100.69 3639.51 110.16 3628.05 117.31 3621.84 121.2 3618.03 123.6 3617.26 124.08 3607.86 129.98 3601.04 134.24 3477.47 211.76 3470.04 211.76 3470.04 202.06 3578.13 134.24 3594.33 124.08 3607.86 115.59 3610.35 114.05 3616.61 110.16 3618.03 109.22 3628.05 102.97 3644.8 92.45 3652.63 87.53 3654.58 86.3 3664.74 79.94 3668.84 77.38 3785.12 4.46 3796.62 4.46 3800.67 4.46 3800.7 9.01 3799.82 9.61"/>
      </g>
      <rect class="cls-3" x="3469.75" y="77.38" width="331.08" height="56.86"/>
      <rect class="cls-11" x="3469.75" y="87.53" width="331.08" height="36.55"/>
      <rect class="cls-4" x="3618.03" y="4.46" width="36.55" height="207.3"/>
      <g>
        <polygon class="cls-3" points="3654.51 134.24 3664.66 134.24 3664.66 211.76 3607.78 211.76 3607.78 134.24 3617.93 134.24 3617.93 77.38 3607.78 77.38 3607.78 4.46 3664.66 4.46 3664.66 77.38 3654.51 77.38 3654.51 134.24"/>
        <rect class="cls-11" x="3617.75" y="4.46" width="36.94" height="207.3"/>
      </g>
    </g>
  </g>
  <g>
    <rect class="cls-8" x="2775.03" y="2.88" width="671.9" height="421.73"/>
    <rect class="cls-1" x="2775.03" y="215.72" width="671.9" height="208.88"/>
    <rect class="cls-3" x="2775.03" y="141.57" width="672.27" height="141.89"/>
    <rect class="cls-13" x="2775.03" y="2.88" width="166.69" height="421.1"/>
  </g>
  <g>
    <g>
      <g>
        <rect class="cls-13" x="7637.5" y="133.44" width="672.65" height="32.09"/>
        <rect class="cls-13" x="7637.5" y="69.45" width="672.65" height="32.05"/>
        <rect class="cls-13" x="7637.5" y="5.5" width="672.65" height="32.05"/>
        <rect class="cls-13" x="7637.5" y="197.47" width="672.65" height="32.09"/>
        <rect class="cls-13" x="7637.5" y="261.38" width="672.65" height="32.09"/>
        <rect class="cls-13" x="7637.5" y="325.4" width="672.65" height="32.05"/>
        <rect class="cls-13" x="7637.5" y="389.28" width="672.65" height="32.05"/>
      </g>
      <rect class="cls-3" x="7637.5" y="101.46" width="672.65" height="32.05"/>
      <rect class="cls-3" x="7637.5" y="37.51" width="672.65" height="32.05"/>
      <rect class="cls-3" x="7637.5" y="165.49" width="672.65" height="32.05"/>
      <rect class="cls-3" x="7637.5" y="229.37" width="672.65" height="32.05"/>
      <rect class="cls-3" x="7637.5" y="293.39" width="672.65" height="32.05"/>
      <rect class="cls-3" x="7637.5" y="357.38" width="672.65" height="32.05"/>
    </g>
    <rect class="cls-10" x="7637.5" y="6.53" width="251.53" height="193.65"/>
    <g>
      <g>
        <polygon class="cls-3" points="7847.71 44.99 7850.38 52.5 7844.01 47.79 7843.99 47.75 7843.97 47.79 7837.65 52.5 7840.29 44.99 7840.37 44.95 7840.33 44.95 7833.78 40.54 7841.66 40.54 7843.82 32.99 7846.25 40.54 7846.25 40.54 7846.27 40.54 7854.25 40.54 7847.65 44.95 7847.63 44.95 7847.71 44.99"/>
        <polygon class="cls-3" points="7847.71 84.13 7850.38 91.61 7844.01 86.93 7843.99 86.89 7843.97 86.93 7837.65 91.61 7840.29 84.13 7840.37 84.1 7840.33 84.1 7833.78 79.65 7841.66 79.65 7843.82 72.09 7846.25 79.65 7846.25 79.69 7846.27 79.65 7854.25 79.65 7847.65 84.1 7847.63 84.1 7847.71 84.13"/>
        <polygon class="cls-3" points="7847.71 123.28 7850.38 130.75 7844.01 126.04 7843.99 126 7843.97 126.04 7837.65 130.75 7840.29 123.28 7840.37 123.2 7840.33 123.2 7833.78 118.79 7841.66 118.79 7843.82 111.24 7846.25 118.79 7846.25 118.79 7846.27 118.79 7854.25 118.79 7847.65 123.2 7847.63 123.2 7847.71 123.28"/>
        <polygon class="cls-3" points="7847.71 162.38 7850.38 169.86 7844.01 165.18 7843.99 165.15 7843.97 165.18 7837.65 169.86 7840.29 162.38 7840.37 162.35 7840.33 162.35 7833.78 157.9 7841.66 157.9 7843.82 150.35 7846.25 157.9 7846.25 157.94 7846.27 157.9 7854.25 157.9 7847.65 162.35 7847.63 162.35 7847.71 162.38"/>
      </g>
      <g>
        <polygon class="cls-3" points="7806.11 44.99 7808.78 52.5 7802.41 47.79 7802.4 47.75 7802.38 47.79 7796.01 52.5 7798.7 44.99 7798.75 44.95 7798.73 44.95 7792.18 40.54 7800.06 40.54 7802.22 32.99 7804.66 40.54 7804.64 40.54 7804.68 40.54 7812.61 40.54 7806.06 44.95 7806.02 44.95 7806.11 44.99"/>
        <polygon class="cls-3" points="7806.11 84.13 7808.78 91.61 7802.41 86.93 7802.4 86.89 7802.38 86.93 7796.01 91.61 7798.7 84.13 7798.75 84.1 7798.73 84.1 7792.18 79.65 7800.06 79.65 7802.22 72.09 7804.66 79.65 7804.64 79.69 7804.68 79.65 7812.61 79.65 7806.06 84.1 7806.02 84.1 7806.11 84.13"/>
        <polygon class="cls-3" points="7806.11 123.28 7808.78 130.75 7802.41 126.04 7802.4 126 7802.38 126.04 7796.01 130.75 7798.7 123.28 7798.75 123.2 7798.73 123.2 7792.18 118.79 7800.06 118.79 7802.22 111.24 7804.66 118.79 7804.64 118.79 7804.68 118.79 7812.61 118.79 7806.06 123.2 7806.02 123.2 7806.11 123.28"/>
        <polygon class="cls-3" points="7806.11 162.38 7808.78 169.86 7802.41 165.18 7802.4 165.15 7802.38 165.18 7796.01 169.86 7798.7 162.38 7798.75 162.35 7798.73 162.35 7792.18 157.9 7800.06 157.9 7802.22 150.35 7804.66 157.9 7804.64 157.94 7804.68 157.9 7812.61 157.9 7806.06 162.35 7806.02 162.35 7806.11 162.38"/>
      </g>
      <g>
        <polygon class="cls-3" points="7764.5 44.99 7767.18 52.5 7760.8 47.79 7760.78 47.75 7760.78 47.79 7754.41 52.5 7757.06 44.99 7757.15 44.95 7757.1 44.95 7750.54 40.54 7758.44 40.54 7760.59 32.99 7763.04 40.54 7763.02 40.54 7763.06 40.54 7771.01 40.54 7764.44 44.95 7764.42 44.95 7764.5 44.99"/>
        <polygon class="cls-3" points="7764.5 84.13 7767.18 91.61 7760.8 86.93 7760.78 86.89 7760.78 86.93 7754.41 91.61 7757.06 84.13 7757.15 84.1 7757.1 84.1 7750.54 79.65 7758.44 79.65 7760.59 72.09 7763.04 79.65 7763.02 79.69 7763.06 79.65 7771.01 79.65 7764.44 84.1 7764.42 84.1 7764.5 84.13"/>
        <polygon class="cls-3" points="7764.5 123.28 7767.18 130.75 7760.8 126.04 7760.78 126 7760.78 126.04 7754.41 130.75 7757.06 123.28 7757.15 123.2 7757.1 123.2 7750.54 118.79 7758.44 118.79 7760.59 111.24 7763.04 118.79 7763.02 118.79 7763.06 118.79 7771.01 118.79 7764.44 123.2 7764.42 123.2 7764.5 123.28"/>
        <polygon class="cls-3" points="7764.5 162.38 7767.18 169.86 7760.8 165.18 7760.78 165.15 7760.78 165.18 7754.41 169.86 7757.06 162.38 7757.15 162.35 7757.1 162.35 7750.54 157.9 7758.44 157.9 7760.59 150.35 7763.04 157.9 7763.02 157.94 7763.06 157.9 7771.01 157.9 7764.44 162.35 7764.42 162.35 7764.5 162.38"/>
      </g>
      <g>
        <polygon class="cls-3" points="7723.59 44.99 7726.23 52.5 7719.87 47.79 7719.87 47.75 7719.87 47.79 7713.49 52.5 7716.15 44.99 7716.23 44.95 7716.19 44.95 7709.63 40.54 7717.53 40.54 7719.68 32.99 7722.13 40.54 7722.09 40.54 7722.13 40.54 7730.09 40.54 7723.53 44.95 7723.51 44.95 7723.59 44.99"/>
        <polygon class="cls-3" points="7723.59 84.13 7726.23 91.61 7719.87 86.93 7719.87 86.89 7719.87 86.93 7713.49 91.61 7716.15 84.13 7716.23 84.1 7716.19 84.1 7709.63 79.65 7717.53 79.65 7719.68 72.09 7722.13 79.65 7722.09 79.69 7722.13 79.65 7730.09 79.65 7723.53 84.1 7723.51 84.1 7723.59 84.13"/>
        <polygon class="cls-3" points="7723.59 123.28 7726.23 130.75 7719.87 126.04 7719.87 126 7719.87 126.04 7713.49 130.75 7716.15 123.28 7716.23 123.2 7716.19 123.2 7709.63 118.79 7717.53 118.79 7719.68 111.24 7722.13 118.79 7722.09 118.79 7722.13 118.79 7730.09 118.79 7723.53 123.2 7723.51 123.2 7723.59 123.28"/>
        <polygon class="cls-3" points="7723.59 162.38 7726.23 169.86 7719.87 165.18 7719.87 165.15 7719.87 165.18 7713.49 169.86 7716.15 162.38 7716.23 162.35 7716.19 162.35 7709.63 157.9 7717.53 157.9 7719.68 150.35 7722.13 157.9 7722.09 157.94 7722.13 157.9 7730.09 157.9 7723.53 162.35 7723.51 162.35 7723.59 162.38"/>
      </g>
      <g>
        <polygon class="cls-3" points="7682.62 44.99 7685.29 52.5 7678.92 47.79 7678.9 47.75 7678.9 47.79 7672.56 52.5 7675.2 44.99 7675.28 44.95 7675.24 44.95 7668.68 40.54 7676.58 40.54 7678.73 32.99 7681.19 40.54 7681.19 40.54 7681.19 40.54 7689.16 40.54 7682.57 44.95 7682.55 44.95 7682.62 44.99"/>
        <polygon class="cls-3" points="7682.62 84.13 7685.29 91.61 7678.92 86.93 7678.9 86.89 7678.9 86.93 7672.56 91.61 7675.2 84.13 7675.28 84.1 7675.24 84.1 7668.68 79.65 7676.58 79.65 7678.73 72.09 7681.19 79.65 7681.19 79.69 7681.19 79.65 7689.16 79.65 7682.57 84.1 7682.55 84.1 7682.62 84.13"/>
        <polygon class="cls-3" points="7682.62 123.28 7685.29 130.75 7678.92 126.04 7678.9 126 7678.9 126.04 7672.56 130.75 7675.2 123.28 7675.28 123.2 7675.24 123.2 7668.68 118.79 7676.58 118.79 7678.73 111.24 7681.19 118.79 7681.19 118.79 7681.19 118.79 7689.16 118.79 7682.57 123.2 7682.55 123.2 7682.62 123.28"/>
        <polygon class="cls-3" points="7682.62 162.38 7685.29 169.86 7678.92 165.18 7678.9 165.15 7678.9 165.18 7672.56 169.86 7675.2 162.38 7675.28 162.35 7675.24 162.35 7668.68 157.9 7676.58 157.9 7678.73 150.35 7681.19 157.9 7681.19 157.94 7681.19 157.9 7689.16 157.9 7682.57 162.35 7682.55 162.35 7682.62 162.38"/>
      </g>
      <g>
        <polygon class="cls-3" points="7867.9 64.54 7870.54 72.02 7864.18 67.34 7864.18 67.3 7864.18 67.34 7857.81 72.02 7860.46 64.54 7860.56 64.47 7860.5 64.47 7853.94 60.06 7861.84 60.06 7863.99 52.5 7866.42 60.06 7866.42 60.09 7866.44 60.06 7874.42 60.06 7867.84 64.47 7867.82 64.47 7867.9 64.54"/>
        <polygon class="cls-3" points="7867.9 103.69 7870.54 111.16 7864.18 106.45 7864.18 106.45 7864.18 106.45 7857.81 111.16 7860.46 103.69 7860.56 103.61 7860.5 103.61 7853.94 99.2 7861.84 99.2 7863.99 91.65 7866.42 99.2 7866.42 99.2 7866.44 99.2 7874.42 99.2 7867.84 103.61 7867.82 103.61 7867.9 103.69"/>
        <polygon class="cls-3" points="7867.9 142.83 7870.54 150.35 7864.18 145.63 7864.18 145.59 7864.18 145.63 7857.81 150.35 7860.46 142.83 7860.56 142.79 7860.5 142.79 7853.94 138.35 7861.84 138.38 7863.99 130.83 7866.42 138.35 7866.42 138.38 7866.44 138.38 7874.42 138.35 7867.84 142.79 7867.82 142.79 7867.9 142.83"/>
        <polygon class="cls-3" points="7867.9 182.01 7870.54 189.53 7864.18 184.81 7864.18 184.78 7864.18 184.81 7857.81 189.53 7860.46 182.01 7860.56 181.98 7860.5 181.98 7853.94 177.57 7861.84 177.57 7863.99 170.01 7866.42 177.57 7866.42 177.61 7866.44 177.57 7874.42 177.57 7867.84 181.98 7867.82 181.98 7867.9 182.01"/>
        <polygon class="cls-3" points="7867.9 25.59 7870.54 33.07 7864.18 28.39 7864.18 28.35 7864.18 28.39 7857.81 33.07 7860.46 25.59 7860.56 25.51 7860.5 25.51 7853.94 21.1 7861.84 21.1 7863.99 13.55 7866.42 21.1 7866.42 21.14 7866.44 21.1 7874.42 21.1 7867.84 25.51 7867.82 25.51 7867.9 25.59"/>
      </g>
      <g>
        <polygon class="cls-3" points="7827.2 64.54 7829.87 72.02 7823.5 67.34 7823.5 67.3 7823.5 67.34 7817.14 72.02 7819.78 64.54 7819.86 64.47 7819.82 64.47 7813.26 60.06 7821.16 60.06 7823.31 52.5 7825.74 60.06 7825.74 60.09 7825.76 60.06 7833.72 60.06 7827.16 64.47 7827.14 64.47 7827.2 64.54"/>
        <polygon class="cls-3" points="7827.2 103.69 7829.87 111.16 7823.5 106.45 7823.5 106.45 7823.5 106.45 7817.14 111.16 7819.78 103.69 7819.86 103.61 7819.82 103.61 7813.26 99.2 7821.16 99.2 7823.31 91.65 7825.74 99.2 7825.74 99.2 7825.76 99.2 7833.72 99.2 7827.16 103.61 7827.14 103.61 7827.2 103.69"/>
        <polygon class="cls-3" points="7827.2 142.83 7829.87 150.35 7823.5 145.63 7823.5 145.59 7823.5 145.63 7817.14 150.35 7819.78 142.83 7819.86 142.79 7819.82 142.79 7813.26 138.35 7821.16 138.38 7823.31 130.83 7825.74 138.35 7825.74 138.38 7825.76 138.38 7833.72 138.35 7827.16 142.79 7827.14 142.79 7827.2 142.83"/>
        <polygon class="cls-3" points="7827.2 182.01 7829.87 189.53 7823.5 184.81 7823.5 184.78 7823.5 184.81 7817.14 189.53 7819.78 182.01 7819.86 181.98 7819.82 181.98 7813.26 177.57 7821.16 177.57 7823.31 170.01 7825.74 177.57 7825.74 177.61 7825.76 177.57 7833.72 177.57 7827.16 181.98 7827.14 181.98 7827.2 182.01"/>
        <polygon class="cls-3" points="7827.2 25.59 7829.87 33.07 7823.5 28.39 7823.5 28.35 7823.5 28.39 7817.14 33.07 7819.78 25.59 7819.86 25.51 7819.82 25.51 7813.26 21.1 7821.16 21.1 7823.31 13.55 7825.74 21.1 7825.74 21.14 7825.76 21.1 7833.72 21.1 7827.16 25.51 7827.14 25.51 7827.2 25.59"/>
      </g>
      <g>
        <polygon class="cls-3" points="7784.89 64.54 7787.58 72.02 7781.19 67.34 7781.17 67.3 7781.17 67.34 7774.83 72.02 7777.49 64.54 7777.55 64.47 7777.51 64.47 7770.98 60.06 7778.84 60.06 7781.02 52.5 7783.44 60.06 7783.44 60.09 7783.47 60.06 7791.41 60.06 7784.85 64.47 7784.82 64.47 7784.89 64.54"/>
        <polygon class="cls-3" points="7784.89 103.69 7787.58 111.16 7781.19 106.45 7781.17 106.45 7781.17 106.45 7774.83 111.16 7777.49 103.69 7777.55 103.61 7777.51 103.61 7770.98 99.2 7778.84 99.2 7781.02 91.65 7783.44 99.2 7783.44 99.2 7783.47 99.2 7791.41 99.2 7784.85 103.61 7784.82 103.61 7784.89 103.69"/>
        <polygon class="cls-3" points="7784.89 142.83 7787.58 150.35 7781.19 145.63 7781.17 145.59 7781.17 145.63 7774.83 150.35 7777.49 142.83 7777.55 142.79 7777.51 142.79 7770.98 138.35 7778.84 138.38 7781.02 130.83 7783.44 138.35 7783.44 138.38 7783.47 138.38 7791.41 138.35 7784.85 142.79 7784.82 142.79 7784.89 142.83"/>
        <polygon class="cls-3" points="7784.89 182.01 7787.58 189.53 7781.19 184.81 7781.17 184.78 7781.17 184.81 7774.83 189.53 7777.49 182.01 7777.55 181.98 7777.51 181.98 7770.98 177.57 7778.84 177.57 7781.02 170.01 7783.44 177.57 7783.44 177.61 7783.47 177.57 7791.41 177.57 7784.85 181.98 7784.82 181.98 7784.89 182.01"/>
        <polygon class="cls-3" points="7784.89 25.59 7787.58 33.07 7781.19 28.39 7781.17 28.35 7781.17 28.39 7774.83 33.07 7777.49 25.59 7777.55 25.51 7777.51 25.51 7770.98 21.1 7778.84 21.1 7781.02 13.55 7783.44 21.1 7783.44 21.14 7783.47 21.1 7791.41 21.1 7784.85 25.51 7784.82 25.51 7784.89 25.59"/>
      </g>
      <g>
        <polygon class="cls-3" points="7743.52 64.54 7746.17 72.02 7739.84 67.34 7739.81 67.3 7739.81 67.34 7733.44 72.02 7736.11 64.54 7736.16 64.47 7736.13 64.47 7729.61 60.06 7737.47 60.06 7739.61 52.5 7742.07 60.06 7742.07 60.09 7742.07 60.06 7750.04 60.06 7743.47 64.47 7743.45 64.47 7743.52 64.54"/>
        <polygon class="cls-3" points="7743.52 103.69 7746.17 111.16 7739.84 106.45 7739.81 106.45 7739.81 106.45 7733.44 111.16 7736.11 103.69 7736.16 103.61 7736.13 103.61 7729.61 99.2 7737.47 99.2 7739.61 91.65 7742.07 99.2 7742.07 99.2 7742.07 99.2 7750.04 99.2 7743.47 103.61 7743.45 103.61 7743.52 103.69"/>
        <polygon class="cls-3" points="7743.52 142.83 7746.17 150.35 7739.84 145.63 7739.81 145.59 7739.81 145.63 7733.44 150.35 7736.11 142.83 7736.16 142.79 7736.13 142.79 7729.61 138.35 7737.47 138.38 7739.61 130.83 7742.07 138.35 7742.07 138.38 7742.07 138.38 7750.04 138.35 7743.47 142.79 7743.45 142.79 7743.52 142.83"/>
        <polygon class="cls-3" points="7743.52 182.01 7746.17 189.53 7739.84 184.81 7739.81 184.78 7739.81 184.81 7733.44 189.53 7736.11 182.01 7736.16 181.98 7736.13 181.98 7729.61 177.57 7737.47 177.57 7739.61 170.01 7742.07 177.57 7742.07 177.61 7742.07 177.57 7750.04 177.57 7743.47 181.98 7743.45 181.98 7743.52 182.01"/>
        <polygon class="cls-3" points="7743.52 25.59 7746.17 33.07 7739.84 28.39 7739.81 28.35 7739.81 28.39 7733.44 33.07 7736.11 25.59 7736.16 25.51 7736.13 25.51 7729.61 21.1 7737.47 21.1 7739.61 13.55 7742.07 21.1 7742.07 21.14 7742.07 21.1 7750.04 21.1 7743.47 25.51 7743.45 25.51 7743.52 25.59"/>
      </g>
      <g>
        <polygon class="cls-3" points="7703.02 64.54 7705.68 72.02 7699.32 67.34 7699.3 67.3 7699.28 67.34 7692.94 72.02 7695.6 64.54 7695.68 64.47 7695.64 64.47 7689.08 60.06 7696.94 60.06 7699.13 52.5 7701.56 60.06 7701.56 60.09 7701.58 60.06 7709.54 60.06 7702.96 64.47 7702.94 64.47 7703.02 64.54"/>
        <polygon class="cls-3" points="7703.02 103.69 7705.68 111.16 7699.32 106.45 7699.3 106.45 7699.28 106.45 7692.94 111.16 7695.6 103.69 7695.68 103.61 7695.64 103.61 7689.08 99.2 7696.94 99.2 7699.13 91.65 7701.56 99.2 7701.56 99.2 7701.58 99.2 7709.54 99.2 7702.96 103.61 7702.94 103.61 7703.02 103.69"/>
        <polygon class="cls-3" points="7703.02 142.83 7705.68 150.35 7699.32 145.63 7699.3 145.59 7699.28 145.63 7692.94 150.35 7695.6 142.83 7695.68 142.79 7695.64 142.79 7689.08 138.35 7696.94 138.38 7699.13 130.83 7701.56 138.35 7701.56 138.38 7701.58 138.38 7709.54 138.35 7702.96 142.79 7702.94 142.79 7703.02 142.83"/>
        <polygon class="cls-3" points="7703.02 182.01 7705.68 189.53 7699.32 184.81 7699.3 184.78 7699.28 184.81 7692.94 189.53 7695.6 182.01 7695.68 181.98 7695.64 181.98 7689.08 177.57 7696.94 177.57 7699.13 170.01 7701.56 177.57 7701.56 177.61 7701.58 177.57 7709.54 177.57 7702.96 181.98 7702.94 181.98 7703.02 182.01"/>
        <polygon class="cls-3" points="7703.02 25.59 7705.68 33.07 7699.32 28.39 7699.3 28.35 7699.28 28.39 7692.94 33.07 7695.6 25.59 7695.68 25.51 7695.64 25.51 7689.08 21.1 7696.94 21.1 7699.13 13.55 7701.56 21.1 7701.56 21.14 7701.58 21.1 7709.54 21.1 7702.96 25.51 7702.94 25.51 7703.02 25.59"/>
      </g>
      <g>
        <polygon class="cls-3" points="7661.82 64.54 7664.49 72.02 7658.14 67.34 7658.1 67.3 7658.1 67.34 7651.74 72.02 7654.42 64.54 7654.48 64.47 7654.46 64.47 7647.87 60.06 7655.76 60.06 7657.91 52.5 7660.37 60.06 7660.37 60.09 7660.37 60.06 7668.34 60.06 7661.79 64.47 7661.75 64.47 7661.82 64.54"/>
        <polygon class="cls-3" points="7661.82 103.69 7664.49 111.16 7658.14 106.45 7658.1 106.45 7658.1 106.45 7651.74 111.16 7654.42 103.69 7654.48 103.61 7654.46 103.61 7647.87 99.2 7655.76 99.2 7657.91 91.65 7660.37 99.2 7660.37 99.2 7660.37 99.2 7668.34 99.2 7661.79 103.61 7661.75 103.61 7661.82 103.69"/>
        <polygon class="cls-3" points="7661.82 142.83 7664.49 150.35 7658.14 145.63 7658.1 145.59 7658.1 145.63 7651.74 150.35 7654.42 142.83 7654.48 142.79 7654.46 142.79 7647.87 138.35 7655.76 138.38 7657.91 130.83 7660.37 138.35 7660.37 138.38 7660.37 138.38 7668.34 138.35 7661.79 142.79 7661.75 142.79 7661.82 142.83"/>
        <polygon class="cls-3" points="7661.82 182.01 7664.49 189.53 7658.14 184.81 7658.1 184.78 7658.1 184.81 7651.74 189.53 7654.42 182.01 7654.48 181.98 7654.46 181.98 7647.87 177.57 7655.76 177.57 7657.91 170.01 7660.37 177.57 7660.37 177.61 7660.37 177.57 7668.34 177.57 7661.79 181.98 7661.75 181.98 7661.82 182.01"/>
        <polygon class="cls-3" points="7661.82 25.59 7664.49 33.07 7658.14 28.39 7658.1 28.35 7658.1 28.39 7651.74 33.07 7654.42 25.59 7654.48 25.51 7654.46 25.51 7647.87 21.1 7655.76 21.1 7657.91 13.55 7660.37 21.1 7660.37 21.14 7660.37 21.1 7668.34 21.1 7661.79 25.51 7661.75 25.51 7661.82 25.59"/>
      </g>
    </g>
  </g>
  <g>
    <rect class="cls-18" x="11160.23" y="7.28" width="664.64" height="416.71"/>
    <polygon class="cls-3" points="11531.25 225.88 11557.9 300.92 11494.28 253.86 11494.16 253.51 11494.02 253.86 11430.42 300.92 11457.07 225.88 11457.81 225.41 11457.44 225.41 11391.9 181.12 11470.77 181.28 11492.38 105.77 11516.71 181.12 11516.58 181.36 11516.81 181.28 11596.41 181.12 11530.74 225.41 11530.51 225.41 11531.25 225.88"/>
  </g>
  <g>
    <g>
      <rect class="cls-16" x="10454.12" y="8.53" width="663.9" height="416.71"/>
      <rect class="cls-17" x="10454.12" y="209.96" width="663.9" height="215.28"/>
      <rect class="cls-3" x="10454.12" y="145.54" width="664.25" height="140.2"/>
    </g>
    <g>
      <path class="cls-14" d="M10809.08,220.5c-.08.51-.23.9-.39,1.37l36.84,17.09-37.73-13.58-.35-.16c-.16.43-.31.82-.47,1.17l32.51,23.34-34.38-20.33c-.33.39-.59.74-.82,1.13l27.04,29.5-29.58-26.96c-.16.23-.41.43-.59.66l21.17,33.95-24.1-31.84c-.43.27-.82.51-1.23.74l13.79,37.58-16.97-36.1c-.33.08-.66.23-1.05.31v.08l6.52,40.04-9.95-38.87-.08-.43c-.51.19-.99.27-1.4.27l-1.8,40.51-1.79-40.04v-.39c-.23.08-.57.08-.82,0l-9.21,39.41,5.62-39.65.08-.27c-.47-.08-.97-.23-1.48-.31l-17.05,36.64,13.64-37.73.1-.16-.98-.47-23.63,32.82,20.43-34.54.08-.19c-.43-.23-.74-.55-1.13-.78l-29.73,27.16,27.02-29.54.1-.08c-.18-.24-.43-.47-.59-.74l-34.22,21.31,32.02-24.15c-.25-.43-.49-.82-.72-1.25l-37.74,13.74,36.26-17.09c-.16-.16-.25-.31-.25-.55l-39.6,6.52,38.62-9.87c-.08-.55-.16-1.05-.16-1.56l-40.02-1.76,39.76-1.83c0-.31,0-.7.08-1.05l-38.95-8.98,39.37,5.46c.16-.51.24-.98.47-1.48l-36.25-16.82,37.4,13.46c.1-.23.25-.55.41-.82l-32.75-23.49,34.47,20.41c.33-.39.57-.82.98-1.21l-27.18-29.73,29.54,27.04c.25-.27.51-.51.76-.78l-21.25-34.03,24.1,31.92c.39-.23.9-.55,1.38-.78l-13.79-37.77,16.97,36.17c.43-.08.9-.23,1.31-.39l-6.46-39.33,9.89,38.51c.49-.08,1.07-.16,1.54-.16l1.81-39.96,1.79,39.88c.33,0,.74,0,1.05.08l8.99-38.94-5.56,39.45c.49.08,1.07.23,1.54.39l16.84-36.25-13.56,37.5c.33.16.57.31.82.47l23.61-32.9-20.41,34.53-.18.16c.39.35.8.66,1.23.9l29.89-27.36-27.12,29.66-.25.23c.25.23.49.39.65.66l34.47-21.42-32.02,24.12-.31.23c.23.39.47.82.74,1.25h.08l38.12-14.01-36.33,17.09-.43.16c.08.23.27.59.35.9l39.84-6.52-38.87,9.95h-.18c.08.51.18.97.18,1.48l40.43,1.8-40.02,1.79h-.33c.08.35,0,.59,0,.9l39.53,9.13-39.78-5.54-.25-.08Z"/>
      <path class="cls-14" d="M10785.45,280.51c-36.04,0-65.34-29.31-65.34-65.32s29.3-65.32,65.34-65.32,65.34,29.3,65.34,65.32-29.33,65.32-65.34,65.32ZM10785.45,153.96c-33.77,0-61.26,27.43-61.26,61.23s27.48,61.26,61.26,61.26,61.24-27.47,61.24-61.26-27.47-61.23-61.24-61.23Z"/>
    </g>
  </g>
  <g>
    <g>
      <rect class="cls-7" x="9750.47" y="5.17" width="663.92" height="416.71"/>
      <rect class="cls-1" x="9750.47" y="206.6" width="663.92" height="215.28"/>
      <rect class="cls-3" x="9750.47" y="142.22" width="664.23" height="140.21"/>
    </g>
    <polygon class="cls-12" points="9978.4 216.08 9989.05 246.01 9963.61 227.24 9963.57 227.09 9963.53 227.24 9938.13 246.01 9948.74 216.08 9949.05 215.89 9948.9 215.89 9922.71 198.17 9954.21 198.25 9962.87 168.05 9972.58 198.17 9972.55 198.29 9972.62 198.25 10004.43 198.17 9978.2 215.89 9978.13 215.89 9978.4 216.08"/>
    <polygon class="cls-12" points="10212.92 216.08 10223.53 246.01 10198.13 227.24 10198.09 227.09 10198.05 227.24 10172.65 246.01 10183.26 216.08 10183.58 215.89 10183.42 215.89 10157.24 198.17 10188.76 198.25 10197.39 168.05 10207.11 198.17 10207.07 198.29 10207.15 198.25 10238.95 198.17 10212.73 215.89 10212.65 215.89 10212.92 216.08"/>
  </g>
  <g>
    <polygon class="cls-10" points="9709.57 5.5 9709.57 422.18 9709.49 422.26 9044.86 422.26 9044.86 5.5 9709.57 5.5"/>
    <g>
      <polygon class="cls-19" points="9709.57 378.79 9709.57 422.18 9709.49 422.26 9640.31 422.26 9436.31 294.34 9415.89 281.54 9391.79 266.4 9383.7 261.33 9359.2 245.99 9350.06 240.22 9342.38 235.46 9326.95 225.82 9321.97 222.66 9314.45 217.98 9242.01 172.48 9209.42 152.07 9044.86 48.93 9044.86 5.5 9045.43 4.68 9046.73 5.5 9114.04 5.5 9321.97 135.84 9342.38 148.67 9347.85 152.07 9380.45 172.48 9383.7 174.55 9396.2 182.39 9415.89 194.72 9419.23 196.87 9436.31 207.56 9452.97 217.98 9497.71 245.99 9530.3 266.4 9709.57 378.79"/>
      <polygon class="cls-11" points="9709.63 420.97 9709.77 422.49 9665.31 422.26 9436.31 278.69 9416.79 266.4 9415.89 265.86 9396.2 253.53 9384.28 245.99 9362.55 232.38 9342.38 219.81 9339.52 217.98 9326.95 210.06 9321.97 206.97 9267 172.48 9234.5 152.07 9044.86 33.17 9044.86 4.57 9045.43 4.68 9046.73 5.5 9280.56 152.07 9313.07 172.48 9321.97 178.06 9342.38 190.9 9350.06 195.7 9362.55 203.54 9385.59 217.98 9415.89 236.94 9419.23 239.09 9430.33 245.99 9436.31 249.78 9462.85 266.4 9709.63 420.97"/>
    </g>
    <g>
      <polygon class="cls-19" points="9709.57 13.74 9709.57 57.09 9558 152.07 9525.48 172.48 9452.97 217.98 9436.31 228.36 9419.23 239.09 9415.89 241.2 9408.2 245.99 9396.2 253.53 9383.7 261.33 9375.62 266.4 9342.38 287.24 9321.97 300.08 9127.02 422.26 9044.86 422.26 9044.86 386.98 9237.19 266.4 9269.69 245.99 9314.45 217.98 9321.97 213.26 9326.95 210.06 9342.38 200.42 9350.06 195.7 9383.7 174.55 9386.97 172.48 9415.89 154.37 9419.57 152.07 9436.31 141.57 9653.38 5.5 9704.34 5.5 9709.57 13.74"/>
      <polygon class="cls-11" points="9707.85 15.88 9490.61 152.07 9458.03 172.48 9436.31 186.14 9419.23 196.87 9415.89 198.97 9385.59 217.98 9362.55 232.38 9350.06 240.22 9342.38 245.02 9340.83 245.99 9321.97 257.86 9308.25 266.4 9059.81 422.26 9044.86 422.26 9044.86 402.75 9262.18 266.4 9294.76 245.99 9321.97 228.94 9326.95 225.82 9339.52 217.98 9342.38 216.1 9362.55 203.54 9396.2 182.39 9411.97 172.48 9415.89 170.06 9436.31 157.22 9444.55 152.07 9678.28 5.5 9701.4 5.5 9709.57 5.5 9709.63 14.63 9707.85 15.88"/>
    </g>
    <rect class="cls-3" x="9044.29" y="152.07" width="665.6" height="114.33"/>
    <rect class="cls-11" x="9044.29" y="172.48" width="665.6" height="73.52"/>
    <rect class="cls-4" x="9342.38" y="5.5" width="73.51" height="416.75"/>
    <g>
      <polygon class="cls-3" points="9415.71 266.4 9436.14 266.4 9436.14 422.26 9321.8 422.26 9321.8 266.4 9342.22 266.4 9342.22 152.07 9321.8 152.07 9321.8 5.5 9436.14 5.5 9436.14 152.07 9415.71 152.07 9415.71 266.4"/>
      <rect class="cls-11" x="9341.82" y="5.5" width="74.28" height="416.75"/>
    </g>
  </g>
  <g>
    <g>
      <rect class="cls-10" x="8342.64" y="5.17" width="663.9" height="416.71"/>
      <rect class="cls-10" x="8342.64" y="206.6" width="663.9" height="215.28"/>
      <rect class="cls-3" x="8342.64" y="142.22" width="664.26" height="140.2"/>
    </g>
    <g>
      <polygon class="cls-10" points="8690.95 215.97 8696.33 231.15 8683.49 221.63 8683.46 221.59 8683.43 221.63 8670.59 231.15 8675.98 215.97 8676.12 215.89 8676.06 215.89 8662.82 206.95 8678.74 206.95 8683.09 191.74 8688.02 206.95 8688 206.99 8688.05 206.95 8704.1 206.95 8690.85 215.89 8690.81 215.89 8690.95 215.97"/>
      <g>
        <polygon class="cls-10" points="8606.41 175.58 8611.78 190.72 8598.95 181.2 8598.94 181.12 8598.9 181.2 8586.06 190.72 8591.44 175.58 8591.58 175.46 8591.51 175.46 8578.29 166.53 8594.2 166.53 8598.57 151.31 8603.48 166.53 8603.46 166.57 8603.5 166.53 8619.57 166.53 8606.32 175.46 8606.27 175.46 8606.41 175.58"/>
        <polygon class="cls-10" points="8606.41 257.14 8611.78 272.28 8598.95 262.79 8598.94 262.72 8598.9 262.79 8586.06 272.28 8591.44 257.14 8591.58 257.06 8591.51 257.06 8578.29 248.12 8594.2 248.12 8598.57 232.9 8603.48 248.12 8603.46 248.16 8603.5 248.12 8619.57 248.12 8606.32 257.06 8606.27 257.06 8606.41 257.14"/>
      </g>
      <g>
        <polygon class="cls-10" points="8771.08 175.58 8776.45 190.72 8763.61 181.2 8763.58 181.12 8763.56 181.2 8750.71 190.72 8756.1 175.58 8756.24 175.46 8756.18 175.46 8742.94 166.53 8758.87 166.53 8763.22 151.31 8768.15 166.53 8768.12 166.57 8768.17 166.53 8784.24 166.53 8770.98 175.46 8770.93 175.46 8771.08 175.58"/>
        <polygon class="cls-10" points="8771.08 257.14 8776.45 272.28 8763.61 262.79 8763.58 262.72 8763.56 262.79 8750.71 272.28 8756.1 257.14 8756.24 257.06 8756.18 257.06 8742.94 248.12 8758.87 248.12 8763.22 232.9 8768.15 248.12 8768.12 248.16 8768.17 248.12 8784.24 248.12 8770.98 257.06 8770.93 257.06 8771.08 257.14"/>
      </g>
    </g>
  </g>
</svg>