<?xml version="1.0" encoding="UTF-8"?>
<svg id="Layer_1" xmlns="http://www.w3.org/2000/svg" viewBox="0 0 10287.21 525.32">
  <defs>
    <style>
      .cls-1 {
        fill: #282a2b;
      }

      .cls-2 {
        fill: #16b3dc;
      }

      .cls-3 {
        fill: #fff;
      }

      .cls-4 {
        fill: #cd202d;
      }

      .cls-5 {
        fill: #466eb5;
      }

      .cls-6 {
        fill: #f9ed2d;
      }

      .cls-7 {
        fill: #51b851;
      }

      .cls-8 {
        fill: #f0ea4f;
      }

      .cls-9 {
        fill: #2f4794;
      }

      .cls-10 {
        fill: #ee2d28;
      }

      .cls-11 {
        fill: #298f44;
      }

      .cls-12 {
        fill: #db312d;
      }

      .cls-13 {
        fill: #ef414a;
      }

      .cls-14 {
        fill: #fcf5f9;
      }
    </style>
  </defs>
  <g>
    <rect class="cls-2" x=".05" y="1.11" width="829.13" height="58.3"/>
    <rect class="cls-3" x=".05" y="59.31" width="829.13" height="58.3"/>
    <rect class="cls-2" x=".05" y="117.34" width="829.13" height="58.3"/>
    <rect class="cls-3" x=".05" y="175.53" width="829.13" height="58.3"/>
    <rect class="cls-2" x=".05" y="233.72" width="829.13" height="58.32"/>
    <rect class="cls-3" x=".05" y="291.93" width="829.13" height="58.3"/>
    <rect class="cls-2" x=".05" y="350.13" width="829.13" height="58.3"/>
    <rect class="cls-3" x=".05" y="408.15" width="829.13" height="58.31"/>
    <rect class="cls-2" x=".05" y="466.36" width="829.13" height="58.3"/>
    <rect class="cls-2" y="1.07" width="284.37" height="290.93"/>
    <rect class="cls-3" y="117.32" width="284.37" height="58.33"/>
    <rect class="cls-3" x="113.7" y="1.03" width="57.02" height="290.92"/>
  </g>
  <g>
    <rect class="cls-3" x="860.23" y=".61" width="834.26" height="523.63"/>
    <g>
      <g>
        <polygon class="cls-1" points="970.43 122.26 1057.76 34.41 1077.29 53.8 989.97 141.67 970.43 122.26"/>
        <polygon class="cls-1" points="998.51 150.81 1085.83 62.94 1105.38 82.35 1018.05 170.21 998.51 150.81"/>
        <polygon class="cls-1" points="1025.76 178.14 1113.07 90.3 1132.61 109.69 1045.29 197.56 1025.76 178.14"/>
      </g>
      <g>
        <g>
          <polygon class="cls-1" points="1470.01 368.14 1504.31 333.6 1523.85 353.03 1489.52 387.63 1470.01 368.14"/>
          <polygon class="cls-1" points="1436.52 440.87 1416.95 421.46 1450.54 387.63 1470.01 407.1 1436.52 440.87"/>
        </g>
        <g>
          <polygon class="cls-1" points="1498.4 396.4 1532.38 362.17 1551.9 381.58 1517.86 415.88 1498.4 396.4"/>
          <polygon class="cls-1" points="1464.64 469.4 1445.1 449.98 1478.91 415.88 1498.4 435.37 1464.64 469.4"/>
        </g>
        <g>
          <polygon class="cls-1" points="1545.23 443.08 1525.73 423.6 1559.59 389.51 1579.11 408.93 1545.23 443.08"/>
          <polygon class="cls-1" points="1491.9 496.8 1472.36 477.37 1506.32 443.17 1525.81 462.63 1491.9 496.8"/>
        </g>
      </g>
      <g>
        <g>
          <polygon class="cls-1" points="1547.55 84.31 1582.1 118.6 1562.68 138.16 1528.06 103.8 1547.55 84.31"/>
          <polygon class="cls-1" points="1474.81 50.8 1494.25 31.26 1528.06 64.84 1508.6 84.31 1474.81 50.8"/>
        </g>
        <polygon class="cls-1" points="1446.32 78.92 1465.74 59.38 1499.82 93.22 1519.31 112.71 1553.51 146.65 1534.12 166.21 1499.82 132.17 1480.35 112.71 1446.32 78.92"/>
        <g>
          <polygon class="cls-1" points="1472.61 159.51 1492.1 140.05 1526.2 173.87 1506.78 193.41 1472.61 159.51"/>
          <polygon class="cls-1" points="1418.91 106.2 1438.33 86.65 1472.56 120.61 1453.04 140.09 1418.91 106.2"/>
        </g>
      </g>
      <g>
        <polygon class="cls-1" points="1026.88 351.79 1046.3 332.25 1080.14 365.81 1099.62 385.32 1134.18 419.59 1114.75 439.12 1080.14 404.78 1060.66 385.32 1026.88 351.79"/>
        <g>
          <polygon class="cls-1" points="1071.38 413.67 1105.6 447.65 1086.17 467.19 1051.89 433.16 1071.38 413.67"/>
          <polygon class="cls-1" points="998.38 379.91 1017.8 360.36 1051.89 394.2 1032.41 413.67 998.38 379.91"/>
        </g>
        <polygon class="cls-1" points="970.98 407.17 990.38 387.65 1024.61 421.6 1044.16 441.02 1078.26 474.87 1058.84 494.41 1024.67 460.5 1005.12 441.07 970.98 407.17"/>
      </g>
    </g>
    <g>
      <path class="cls-9" d="M1427.88,258.18c0,81.99-66.44,148.47-148.45,148.47s-148.46-66.48-148.46-148.47,66.47-148.48,148.46-148.48,148.45,66.47,148.45,148.48Z"/>
      <path class="cls-12" d="M1427.13,258.19c0,7.06-.47,13.95-1.5,20.76-4.32-29.41-20.37-82.48-81.18-83.49-44.45,0-59.7,19.75-69.07,43.08-13.58,33.71-15.05,74.76-74.75,74.76-43.89,0-62.9-24.79-70.35-52.9-.1-.72-.1-1.47-.1-2.19,0-25.18,6.26-48.88,17.37-69.71,24.98-46.84,74.3-78.8,131.14-78.8,81.91,0,148.43,66.49,148.43,148.51Z"/>
    </g>
  </g>
  <g>
    <g>
      <rect class="cls-13" x="2581.99" y="1.53" width="833.44" height="522.52"/>
      <rect class="cls-3" x="2792.05" y="1.49" width="415.62" height="522.44"/>
    </g>
    <polygon class="cls-13" points="2986.55 353.11 2986.55 445.79 3002.64 445.79 3002.64 350.41 3088.61 369.24 3077.9 339.68 3161.13 261.78 3138.33 257.75 3153.1 201.35 3104.76 210.75 3094 183.89 3049.67 228.21 3063.07 124.79 3032.2 138.21 2995.94 75.1 2961 140.91 2926.11 120.75 2943.58 228.21 2896.56 179.85 2892.55 209.4 2842.83 198.65 2858.98 252.38 2833.44 261.78 2914.03 334.3 2901.94 363.85 2986.55 353.11"/>
  </g>
  <g>
    <rect class="cls-12" x="8601.43" y="3.28" width="830.39" height="521.38"/>
    <polygon class="cls-11" points="9431.82 172.52 9431.82 370.98 9106.98 369.85 9106.73 369.85 9088.86 369.75 8830.13 524.66 8601.43 524.66 8601.43 3.28 8792.14 3.28 9075.68 167.94 9431.82 172.52"/>
    <polygon class="cls-3" points="9431.82 139.83 9431.82 190.91 9077.53 190.91 8765.93 3.28 8873.44 3.28 9100.33 139.83 9431.82 139.83"/>
    <polygon class="cls-1" points="8850.74 267.56 8601.43 434.03 8601.43 111.3 8850.74 267.56"/>
    <polygon class="cls-9" points="9431.82 361.57 9431.82 524.66 8852.69 524.66 9106.73 369.85 9106.98 369.85 9115.33 364.64 9431.82 361.57"/>
    <polygon class="cls-3" points="9431.82 341.64 9431.82 392.73 9100.33 392.73 8881.16 524.66 8773.59 524.66 9077.53 341.64 9431.82 341.64"/>
    <polygon class="cls-6" points="8920.31 265.1 8601.43 460.38 8601.43 395.2 8814.21 264.89 8601.43 133.49 8601.43 68.1 8920.31 265.1"/>
  </g>
  <g>
    <rect class="cls-3" x="7747.11" width="836.94" height="525.32"/>
    <path class="cls-12" d="M8359.67,262.67c0,107.19-86.9,194.08-194.09,194.08s-194.08-86.89-194.08-194.08,86.9-194.08,194.08-194.08,194.09,86.89,194.09,194.08Z"/>
  </g>
  <g>
    <rect class="cls-10" x="6894.52" y="1.03" width="834.71" height="523.31"/>
    <polygon class="cls-3" points="7066.04 148.59 7088.83 212.69 7034.48 172.46 7034.38 172.16 7034.29 172.46 6979.89 212.69 7002.68 148.59 7003.31 148.15 7002.97 148.15 6947 110.31 7014.39 110.41 7032.87 45.92 7053.65 110.31 7053.55 110.51 7053.74 110.41 7121.77 110.31 7065.65 148.15 7065.46 148.15 7066.04 148.59"/>
    <g>
      <g>
        <polygon class="cls-3" points="7215.57 213.97 7219.39 200.64 7223.66 213.77 7219.83 226.12 7215.57 213.97"/>
        <polygon class="cls-3" points="7223.66 213.77 7237.57 213.77 7226.1 221.52 7213.22 221.27 7223.66 213.77"/>
        <polygon class="cls-3" points="7226.16 221.61 7230.86 234.7 7219.73 226.51 7215.67 214.21 7226.16 221.61"/>
        <polygon class="cls-3" points="7215.76 213.77 7201.9 213.77 7213.32 221.52 7226.25 221.27 7215.76 213.77"/>
        <polygon class="cls-3" points="7213.27 221.61 7208.61 234.7 7219.69 226.51 7223.75 214.21 7213.27 221.61"/>
      </g>
      <g>
        <polygon class="cls-3" points="7152.79 279.88 7160.24 268.17 7160.63 281.99 7153.48 292.72 7152.79 279.88"/>
        <polygon class="cls-3" points="7160.63 281.99 7173.96 285.86 7160.78 290.13 7148.48 286.21 7160.63 281.99"/>
        <polygon class="cls-3" points="7160.83 290.18 7161.56 304.04 7153.28 293.07 7152.84 280.13 7160.83 290.18"/>
        <polygon class="cls-3" points="7153.03 279.78 7139.7 275.87 7148.52 286.5 7160.97 289.88 7153.03 279.78"/>
        <polygon class="cls-3" points="7148.43 286.55 7140.29 297.82 7153.23 293.07 7160.58 282.43 7148.43 286.55"/>
      </g>
      <g>
        <polygon class="cls-3" points="7232.04 132.61 7242.67 123.65 7238.9 136.93 7228.85 145.06 7232.04 132.61"/>
        <polygon class="cls-3" points="7238.9 136.97 7250.46 144.67 7236.64 144.72 7226.06 137.32 7238.9 136.97"/>
        <polygon class="cls-3" points="7236.64 144.82 7233.26 158.29 7228.6 145.31 7231.99 132.86 7236.64 144.82"/>
        <polygon class="cls-3" points="7232.33 132.57 7220.81 124.82 7226.01 137.61 7236.89 144.57 7232.33 132.57"/>
        <polygon class="cls-3" points="7225.91 137.61 7214.79 145.89 7228.56 145.26 7238.75 137.37 7225.91 137.61"/>
      </g>
      <g>
        <polygon class="cls-3" points="7192.88 56.11 7200.43 44.45 7200.67 58.27 7193.42 68.95 7192.88 56.11"/>
        <polygon class="cls-3" points="7200.67 58.32 7213.95 62.33 7200.77 66.4 7188.47 62.39 7200.67 58.32"/>
        <polygon class="cls-3" points="7200.77 66.5 7201.41 80.37 7193.22 69.25 7192.93 56.36 7200.77 66.5"/>
        <polygon class="cls-3" points="7193.12 56.01 7179.84 51.95 7188.52 62.63 7200.97 66.16 7193.12 56.01"/>
        <polygon class="cls-3" points="7188.42 62.73 7180.19 73.85 7193.17 69.25 7200.62 58.71 7188.42 62.73"/>
      </g>
    </g>
  </g>
  <g>
    <rect class="cls-9" x="1718.93" y=".11" width="834.26" height="523.04"/>
    <rect class="cls-10" x="2152.03" y=".11" width="401.16" height="523.04"/>
    <rect class="cls-3" x="1996.25" y=".86" width="281.9" height="520.23"/>
  </g>
  <g>
    <rect class="cls-5" x="6036.7" y="1.03" width="834.26" height="523.14"/>
    <g>
      <rect class="cls-8" x="6036.7" y="213.64" width="834.26" height="90.21"/>
      <rect class="cls-8" x="6243.65" y="1.03" width="90.22" height="523.14"/>
      <rect class="cls-8" x="6261.62" y="1.03" width="54.32" height="523.14"/>
      <rect class="cls-8" x="6036.7" y="228.17" width="834.26" height="61.16"/>
    </g>
  </g>
  <g>
    <rect class="cls-9" x="5174.47" y=".11" width="834.26" height="523.04"/>
    <rect class="cls-10" x="5607.56" y=".11" width="401.16" height="523.04"/>
    <rect class="cls-3" x="5451.78" y=".86" width="281.9" height="520.23"/>
  </g>
  <g>
    <rect class="cls-9" x="4315.77" y="1.41" width="834.26" height="521.41"/>
    <g>
      <polygon class="cls-10" points="4872.73 221.47 4884.6 254.92 4856.24 233.96 4856.18 233.78 4856.14 233.96 4827.77 254.92 4839.65 221.47 4839.98 221.26 4839.81 221.26 4810.59 201.49 4845.75 201.57 4855.38 167.9 4866.26 201.49 4866.19 201.62 4866.3 201.57 4901.8 201.49 4872.51 221.26 4872.41 221.26 4872.73 221.47"/>
      <path class="cls-3" d="M4888.59,260.3l-32.39-23.94-32.42,23.94,13.62-38.31-33.21-22.47,40.09.08,10.98-38.42,12.46,38.42,40.5-.08-33.24,22.44,13.61,38.34ZM4841.27,222.76l-9.51,26.78,22.62-16.7,1.29-6.5,2.23,6.42,22.7,16.79-9.5-26.79-4.95-3.25,5.73-.18,23.5-15.85-28.67.05-5.28,2.34,2.7-4.6-8.63-26.66-8.27,28.93-30.23-.06,23.41,15.82h6.18l-5.32,3.47Z"/>
    </g>
    <g>
      <polygon class="cls-10" points="4970.16 124.05 4982.04 157.5 4953.67 136.52 4953.62 136.33 4953.58 136.52 4925.19 157.5 4937.09 124.05 4937.41 123.84 4937.25 123.84 4908.03 104.07 4943.18 104.13 4952.82 70.45 4963.68 104.07 4963.64 104.18 4963.74 104.13 4999.23 104.07 4969.95 123.84 4969.85 123.84 4970.16 124.05"/>
      <path class="cls-3" d="M4986.03,162.89l-32.4-23.97-32.44,23.97,13.65-38.33-33.21-22.46,40.08.06,11-38.43,12.41,38.43,40.53-.06-33.23,22.43,13.61,38.36ZM4938.72,125.32l-9.53,26.79,22.67-16.76,1.72-6.44,1.8,6.44,22.67,16.76-9.53-26.8-4.73-3.22,5.54-.18,23.49-15.87-28.61.05-3.81,1.9,1.22-3.92-8.69-26.89-8.27,28.92-30.22-.06,23.41,15.85h5.98l-5.11,3.44Z"/>
    </g>
    <g>
      <polygon class="cls-10" points="4973.61 434.55 4987.95 474.89 4953.75 449.6 4953.67 449.4 4953.61 449.6 4919.42 474.89 4933.75 434.55 4934.13 434.3 4933.95 434.3 4898.7 410.48 4941.09 410.57 4952.72 369.95 4965.81 410.48 4965.76 410.62 4965.87 410.57 5008.67 410.48 4973.38 434.3 4973.26 434.3 4973.61 434.55"/>
      <path class="cls-3" d="M4991.95,480.28l-38.26-28.29-38.26,28.29,16.08-45.26-39.23-26.51,47.34.1,12.99-45.37,14.65,45.37,47.83-.1-39.25,26.48,16.1,45.29ZM4935.38,435.81l-11.98,33.69,28.52-21.09,1.51-4.83,1.93,4.78,28.6,21.14-11.99-33.71-4.4-3.2,5.17-.23,29.51-19.9-35.97.06-3.83,1.71,1.29-3.77-10.92-33.78-10.26,35.86-37.45-.07,29.43,19.89h5.78l-4.94,3.46Z"/>
    </g>
    <g>
      <polygon class="cls-10" points="5067.07 220.93 5078.94 254.39 5050.57 233.4 5050.53 233.24 5050.46 233.4 5022.1 254.39 5033.99 220.93 5034.3 220.72 5034.17 220.72 5004.93 200.97 5040.1 201.02 5049.71 167.35 5060.6 200.97 5060.53 201.08 5060.64 201.02 5096.13 200.97 5066.84 220.72 5066.73 220.72 5067.07 220.93"/>
      <path class="cls-3" d="M5018.12,259.79l13.61-38.34-33.21-22.44,40.1.05,10.97-38.43,12.45,38.43,40.52-.05-33.23,22.4,13.61,38.38-32.42-24-32.4,24ZM5052.3,232.24l22.66,16.76-9.49-26.75-5.39-3.28,6.15-.18,23.5-15.85-28.56.04-5.55,3.07,2.87-5.27-8.64-26.7-8.26,28.91-30.24-.05,23.44,15.82h5.98l-5.13,3.44-9.52,26.8,22.79-16.89,2.2-4.74,1.22,4.87Z"/>
    </g>
    <g>
      <polygon class="cls-9" points="4727.48 2.99 4727.48 260.34 4727.44 260.38 4316.95 260.38 4316.95 2.99 4727.48 2.99"/>
      <g>
        <polygon class="cls-14" points="4727.48 233.56 4727.48 260.34 4727.44 260.38 4684.71 260.38 4558.71 181.4 4546.09 173.47 4531.22 164.14 4526.22 161 4511.08 151.52 4505.44 147.95 4500.71 145.01 4491.17 139.07 4488.08 137.1 4483.44 134.24 4438.71 106.14 4418.59 93.54 4316.95 29.81 4316.95 2.99 4317.29 2.46 4318.11 2.99 4359.67 2.99 4488.08 83.48 4500.71 91.39 4504.09 93.54 4524.19 106.14 4526.22 107.38 4533.94 112.24 4546.09 119.85 4548.17 121.16 4558.71 127.77 4569.01 134.24 4596.64 151.52 4616.77 164.14 4727.48 233.56"/>
        <polygon class="cls-10" points="4727.52 259.58 4727.61 260.54 4700.16 260.38 4558.71 171.71 4546.65 164.14 4546.09 163.78 4533.94 156.16 4526.57 151.52 4513.15 143.12 4500.71 135.35 4498.94 134.24 4491.17 129.33 4488.08 127.43 4454.14 106.14 4434.07 93.54 4316.95 20.08 4316.95 2.4 4317.29 2.46 4318.11 2.99 4462.51 93.54 4482.59 106.14 4488.08 109.57 4500.71 117.5 4505.44 120.46 4513.15 125.31 4527.38 134.24 4546.09 145.92 4548.17 147.25 4555.02 151.52 4558.71 153.85 4575.1 164.14 4727.52 259.58"/>
      </g>
      <g>
        <polygon class="cls-14" points="4727.48 8.07 4727.48 34.87 4633.86 93.54 4613.79 106.14 4569.01 134.24 4558.71 140.63 4548.17 147.25 4546.09 148.56 4541.35 151.52 4533.94 156.16 4526.22 161 4521.23 164.14 4500.71 177 4488.08 184.91 4367.69 260.38 4316.95 260.38 4316.95 238.6 4435.73 164.14 4455.81 151.52 4483.44 134.24 4488.08 131.31 4491.17 129.33 4500.71 123.38 4505.44 120.46 4526.22 107.38 4528.24 106.14 4546.09 94.94 4548.37 93.54 4558.71 87.02 4692.78 2.99 4724.25 2.99 4727.48 8.07"/>
        <polygon class="cls-10" points="4726.42 9.38 4592.24 93.54 4572.13 106.14 4558.71 114.56 4548.17 121.16 4546.09 122.47 4527.38 134.24 4513.15 143.12 4505.44 147.95 4500.71 150.93 4499.74 151.52 4488.08 158.84 4479.61 164.14 4326.19 260.38 4316.95 260.38 4316.95 248.34 4451.16 164.14 4471.28 151.52 4488.08 140.98 4491.17 139.07 4498.94 134.24 4500.71 133.06 4513.15 125.31 4533.94 112.24 4543.66 106.14 4546.09 104.61 4558.71 96.71 4563.8 93.54 4708.17 2.99 4722.45 2.99 4727.48 2.99 4727.52 8.64 4726.42 9.38"/>
      </g>
      <rect class="cls-3" x="4316.6" y="93.54" width="411.08" height="70.6"/>
      <rect class="cls-10" x="4316.6" y="106.14" width="411.08" height="45.38"/>
      <rect class="cls-4" x="4500.71" y="2.99" width="45.38" height="257.4"/>
      <g>
        <polygon class="cls-3" points="4546 164.14 4558.61 164.14 4558.61 260.38 4487.98 260.38 4487.98 164.14 4500.59 164.14 4500.59 93.54 4487.98 93.54 4487.98 2.99 4558.61 2.99 4558.61 93.54 4546 93.54 4546 164.14"/>
        <rect class="cls-10" x="4500.35" y="2.99" width="45.87" height="257.4"/>
      </g>
    </g>
  </g>
  <g>
    <rect class="cls-7" x="3441.17" y="1.03" width="834.26" height="523.63"/>
    <rect class="cls-1" x="3441.17" y="265.3" width="834.26" height="259.36"/>
    <rect class="cls-3" x="3441.17" y="173.24" width="834.71" height="176.17"/>
    <rect class="cls-12" x="3441.17" y="1.03" width="206.96" height="522.85"/>
  </g>
  <g>
    <g>
      <g>
        <rect class="cls-12" x="9452.02" y="163.14" width="835.19" height="39.85"/>
        <rect class="cls-12" x="9452.02" y="83.69" width="835.19" height="39.8"/>
        <rect class="cls-12" x="9452.02" y="4.28" width="835.19" height="39.8"/>
        <rect class="cls-12" x="9452.02" y="242.64" width="835.19" height="39.84"/>
        <rect class="cls-12" x="9452.02" y="321.99" width="835.19" height="39.85"/>
        <rect class="cls-12" x="9452.02" y="401.49" width="835.19" height="39.8"/>
        <rect class="cls-12" x="9452.02" y="480.8" width="835.19" height="39.8"/>
      </g>
      <rect class="cls-3" x="9452.02" y="123.44" width="835.19" height="39.8"/>
      <rect class="cls-3" x="9452.02" y="44.03" width="835.19" height="39.8"/>
      <rect class="cls-3" x="9452.02" y="202.93" width="835.19" height="39.8"/>
      <rect class="cls-3" x="9452.02" y="282.24" width="835.19" height="39.8"/>
      <rect class="cls-3" x="9452.02" y="361.74" width="835.19" height="39.8"/>
      <rect class="cls-3" x="9452.02" y="441.19" width="835.19" height="39.8"/>
    </g>
    <rect class="cls-9" x="9452.02" y="5.57" width="312.3" height="240.45"/>
    <g>
      <g>
        <polygon class="cls-3" points="9713.03 53.32 9716.34 62.65 9708.44 56.79 9708.41 56.74 9708.39 56.79 9700.54 62.65 9703.82 53.32 9703.92 53.27 9703.87 53.27 9695.73 47.79 9705.51 47.79 9708.2 38.41 9711.22 47.79 9711.22 47.79 9711.25 47.79 9721.15 47.79 9712.96 53.27 9712.94 53.27 9713.03 53.32"/>
        <polygon class="cls-3" points="9713.03 101.92 9716.34 111.2 9708.44 105.39 9708.41 105.35 9708.39 105.39 9700.54 111.2 9703.82 101.92 9703.92 101.87 9703.87 101.87 9695.73 96.35 9705.51 96.35 9708.2 86.97 9711.22 96.35 9711.22 96.4 9711.25 96.35 9721.15 96.35 9712.96 101.87 9712.94 101.87 9713.03 101.92"/>
        <polygon class="cls-3" points="9713.03 150.52 9716.34 159.81 9708.44 153.95 9708.41 153.9 9708.39 153.95 9700.54 159.81 9703.82 150.52 9703.92 150.43 9703.87 150.43 9695.73 144.95 9705.51 144.95 9708.2 135.58 9711.22 144.95 9711.22 144.95 9711.25 144.95 9721.15 144.95 9712.96 150.43 9712.94 150.43 9713.03 150.52"/>
        <polygon class="cls-3" points="9713.03 199.08 9716.34 208.36 9708.44 202.55 9708.41 202.51 9708.39 202.55 9700.54 208.36 9703.82 199.08 9703.92 199.03 9703.87 199.03 9695.73 193.51 9705.51 193.51 9708.2 184.13 9711.22 193.51 9711.22 193.56 9711.25 193.51 9721.15 193.51 9712.96 199.03 9712.94 199.03 9713.03 199.08"/>
      </g>
      <g>
        <polygon class="cls-3" points="9661.38 53.32 9664.69 62.65 9656.79 56.79 9656.77 56.74 9656.74 56.79 9648.84 62.65 9652.17 53.32 9652.24 53.27 9652.22 53.27 9644.08 47.79 9653.86 47.79 9656.55 38.41 9659.57 47.79 9659.55 47.79 9659.6 47.79 9669.45 47.79 9661.31 53.27 9661.26 53.27 9661.38 53.32"/>
        <polygon class="cls-3" points="9661.38 101.92 9664.69 111.2 9656.79 105.39 9656.77 105.35 9656.74 105.39 9648.84 111.2 9652.17 101.92 9652.24 101.87 9652.22 101.87 9644.08 96.35 9653.86 96.35 9656.55 86.97 9659.57 96.35 9659.55 96.4 9659.6 96.35 9669.45 96.35 9661.31 101.87 9661.26 101.87 9661.38 101.92"/>
        <polygon class="cls-3" points="9661.38 150.52 9664.69 159.81 9656.79 153.95 9656.77 153.9 9656.74 153.95 9648.84 159.81 9652.17 150.52 9652.24 150.43 9652.22 150.43 9644.08 144.95 9653.86 144.95 9656.55 135.58 9659.57 144.95 9659.55 144.95 9659.6 144.95 9669.45 144.95 9661.31 150.43 9661.26 150.43 9661.38 150.52"/>
        <polygon class="cls-3" points="9661.38 199.08 9664.69 208.36 9656.79 202.55 9656.77 202.51 9656.74 202.55 9648.84 208.36 9652.17 199.08 9652.24 199.03 9652.22 199.03 9644.08 193.51 9653.86 193.51 9656.55 184.13 9659.57 193.51 9659.55 193.56 9659.6 193.51 9669.45 193.51 9661.31 199.03 9661.26 199.03 9661.38 199.08"/>
      </g>
      <g>
        <polygon class="cls-3" points="9609.71 53.32 9613.04 62.65 9605.11 56.79 9605.09 56.74 9605.09 56.79 9597.19 62.65 9600.47 53.32 9600.59 53.27 9600.52 53.27 9592.38 47.79 9602.19 47.79 9604.85 38.41 9607.9 47.79 9607.88 47.79 9607.92 47.79 9617.8 47.79 9609.64 53.27 9609.61 53.27 9609.71 53.32"/>
        <polygon class="cls-3" points="9609.71 101.92 9613.04 111.2 9605.11 105.39 9605.09 105.35 9605.09 105.39 9597.19 111.2 9600.47 101.92 9600.59 101.87 9600.52 101.87 9592.38 96.35 9602.19 96.35 9604.85 86.97 9607.9 96.35 9607.88 96.4 9607.92 96.35 9617.8 96.35 9609.64 101.87 9609.61 101.87 9609.71 101.92"/>
        <polygon class="cls-3" points="9609.71 150.52 9613.04 159.81 9605.11 153.95 9605.09 153.9 9605.09 153.95 9597.19 159.81 9600.47 150.52 9600.59 150.43 9600.52 150.43 9592.38 144.95 9602.19 144.95 9604.85 135.58 9607.9 144.95 9607.88 144.95 9607.92 144.95 9617.8 144.95 9609.64 150.43 9609.61 150.43 9609.71 150.52"/>
        <polygon class="cls-3" points="9609.71 199.08 9613.04 208.36 9605.11 202.55 9605.09 202.51 9605.09 202.55 9597.19 208.36 9600.47 199.08 9600.59 199.03 9600.52 199.03 9592.38 193.51 9602.19 193.51 9604.85 184.13 9607.9 193.51 9607.88 193.56 9607.92 193.51 9617.8 193.51 9609.64 199.03 9609.61 199.03 9609.71 199.08"/>
      </g>
      <g>
        <polygon class="cls-3" points="9558.91 53.32 9562.2 62.65 9554.3 56.79 9554.3 56.74 9554.3 56.79 9546.37 62.65 9549.68 53.32 9549.77 53.27 9549.73 53.27 9541.59 47.79 9551.39 47.79 9554.06 38.41 9557.11 47.79 9557.06 47.79 9557.11 47.79 9566.98 47.79 9558.84 53.27 9558.82 53.27 9558.91 53.32"/>
        <polygon class="cls-3" points="9558.91 101.92 9562.2 111.2 9554.3 105.39 9554.3 105.35 9554.3 105.39 9546.37 111.2 9549.68 101.92 9549.77 101.87 9549.73 101.87 9541.59 96.35 9551.39 96.35 9554.06 86.97 9557.11 96.35 9557.06 96.4 9557.11 96.35 9566.98 96.35 9558.84 101.87 9558.82 101.87 9558.91 101.92"/>
        <polygon class="cls-3" points="9558.91 150.52 9562.2 159.81 9554.3 153.95 9554.3 153.9 9554.3 153.95 9546.37 159.81 9549.68 150.52 9549.77 150.43 9549.73 150.43 9541.59 144.95 9551.39 144.95 9554.06 135.58 9557.11 144.95 9557.06 144.95 9557.11 144.95 9566.98 144.95 9558.84 150.43 9558.82 150.43 9558.91 150.52"/>
        <polygon class="cls-3" points="9558.91 199.08 9562.2 208.36 9554.3 202.55 9554.3 202.51 9554.3 202.55 9546.37 208.36 9549.68 199.08 9549.77 199.03 9549.73 199.03 9541.59 193.51 9551.39 193.51 9554.06 184.13 9557.11 193.51 9557.06 193.56 9557.11 193.51 9566.98 193.51 9558.84 199.03 9558.82 199.03 9558.91 199.08"/>
      </g>
      <g>
        <polygon class="cls-3" points="9508.05 53.32 9511.36 62.65 9503.46 56.79 9503.43 56.74 9503.43 56.79 9495.55 62.65 9498.84 53.32 9498.93 53.27 9498.89 53.27 9490.75 47.79 9500.55 47.79 9503.22 38.41 9506.27 47.79 9506.27 47.79 9506.27 47.79 9516.17 47.79 9507.98 53.27 9507.96 53.27 9508.05 53.32"/>
        <polygon class="cls-3" points="9508.05 101.92 9511.36 111.2 9503.46 105.39 9503.43 105.35 9503.43 105.39 9495.55 111.2 9498.84 101.92 9498.93 101.87 9498.89 101.87 9490.75 96.35 9500.55 96.35 9503.22 86.97 9506.27 96.35 9506.27 96.4 9506.27 96.35 9516.17 96.35 9507.98 101.87 9507.96 101.87 9508.05 101.92"/>
        <polygon class="cls-3" points="9508.05 150.52 9511.36 159.81 9503.46 153.95 9503.43 153.9 9503.43 153.95 9495.55 159.81 9498.84 150.52 9498.93 150.43 9498.89 150.43 9490.75 144.95 9500.55 144.95 9503.22 135.58 9506.27 144.95 9506.27 144.95 9506.27 144.95 9516.17 144.95 9507.98 150.43 9507.96 150.43 9508.05 150.52"/>
        <polygon class="cls-3" points="9508.05 199.08 9511.36 208.36 9503.46 202.55 9503.43 202.51 9503.43 202.55 9495.55 208.36 9498.84 199.08 9498.93 199.03 9498.89 199.03 9490.75 193.51 9500.55 193.51 9503.22 184.13 9506.27 193.51 9506.27 193.56 9506.27 193.51 9516.17 193.51 9507.98 199.03 9507.96 199.03 9508.05 199.08"/>
      </g>
      <g>
        <polygon class="cls-3" points="9738.1 77.59 9741.38 86.88 9733.48 81.07 9733.48 81.02 9733.48 81.07 9725.58 86.88 9728.86 77.59 9728.98 77.5 9728.91 77.5 9720.77 72.03 9730.58 72.03 9733.24 62.65 9736.26 72.03 9736.26 72.07 9736.29 72.03 9746.19 72.03 9738.02 77.5 9738 77.5 9738.1 77.59"/>
        <polygon class="cls-3" points="9738.1 126.2 9741.38 135.48 9733.48 129.62 9733.48 129.62 9733.48 129.62 9725.58 135.48 9728.86 126.2 9728.98 126.1 9728.91 126.1 9720.77 120.63 9730.58 120.63 9733.24 111.25 9736.26 120.63 9736.26 120.63 9736.29 120.63 9746.19 120.63 9738.02 126.1 9738 126.1 9738.1 126.2"/>
        <polygon class="cls-3" points="9738.1 174.8 9741.38 184.13 9733.48 178.28 9733.48 178.23 9733.48 178.28 9725.58 184.13 9728.86 174.8 9728.98 174.75 9728.91 174.75 9720.77 169.23 9730.58 169.28 9733.24 159.9 9736.26 169.23 9736.26 169.28 9736.29 169.28 9746.19 169.23 9738.02 174.75 9738 174.75 9738.1 174.8"/>
        <polygon class="cls-3" points="9738.1 223.45 9741.38 232.78 9733.48 226.93 9733.48 226.88 9733.48 226.93 9725.58 232.78 9728.86 223.45 9728.98 223.4 9728.91 223.4 9720.77 217.93 9730.58 217.93 9733.24 208.55 9736.26 217.93 9736.26 217.98 9736.29 217.93 9746.19 217.93 9738.02 223.4 9738 223.4 9738.1 223.45"/>
        <polygon class="cls-3" points="9738.1 29.23 9741.38 38.51 9733.48 32.7 9733.48 32.66 9733.48 32.7 9725.58 38.51 9728.86 29.23 9728.98 29.13 9728.91 29.13 9720.77 23.66 9730.58 23.66 9733.24 14.28 9736.26 23.66 9736.26 23.71 9736.29 23.66 9746.19 23.66 9738.02 29.13 9738 29.13 9738.1 29.23"/>
      </g>
      <g>
        <polygon class="cls-3" points="9687.56 77.59 9690.87 86.88 9682.97 81.07 9682.97 81.02 9682.97 81.07 9675.07 86.88 9678.35 77.59 9678.45 77.5 9678.4 77.5 9670.26 72.03 9680.07 72.03 9682.73 62.65 9685.76 72.03 9685.76 72.07 9685.78 72.03 9695.66 72.03 9687.52 77.5 9687.49 77.5 9687.56 77.59"/>
        <polygon class="cls-3" points="9687.56 126.2 9690.87 135.48 9682.97 129.62 9682.97 129.62 9682.97 129.62 9675.07 135.48 9678.35 126.2 9678.45 126.1 9678.4 126.1 9670.26 120.63 9680.07 120.63 9682.73 111.25 9685.76 120.63 9685.76 120.63 9685.78 120.63 9695.66 120.63 9687.52 126.1 9687.49 126.1 9687.56 126.2"/>
        <polygon class="cls-3" points="9687.56 174.8 9690.87 184.13 9682.97 178.28 9682.97 178.23 9682.97 178.28 9675.07 184.13 9678.35 174.8 9678.45 174.75 9678.4 174.75 9670.26 169.23 9680.07 169.28 9682.73 159.9 9685.76 169.23 9685.76 169.28 9685.78 169.28 9695.66 169.23 9687.52 174.75 9687.49 174.75 9687.56 174.8"/>
        <polygon class="cls-3" points="9687.56 223.45 9690.87 232.78 9682.97 226.93 9682.97 226.88 9682.97 226.93 9675.07 232.78 9678.35 223.45 9678.45 223.4 9678.4 223.4 9670.26 217.93 9680.07 217.93 9682.73 208.55 9685.76 217.93 9685.76 217.98 9685.78 217.93 9695.66 217.93 9687.52 223.4 9687.49 223.4 9687.56 223.45"/>
        <polygon class="cls-3" points="9687.56 29.23 9690.87 38.51 9682.97 32.7 9682.97 32.66 9682.97 32.7 9675.07 38.51 9678.35 29.23 9678.45 29.13 9678.4 29.13 9670.26 23.66 9680.07 23.66 9682.73 14.28 9685.76 23.66 9685.76 23.71 9685.78 23.66 9695.66 23.66 9687.52 29.13 9687.49 29.13 9687.56 29.23"/>
      </g>
      <g>
        <polygon class="cls-3" points="9635.03 77.59 9638.37 86.88 9630.44 81.07 9630.42 81.02 9630.42 81.07 9622.54 86.88 9625.85 77.59 9625.92 77.5 9625.87 77.5 9617.75 72.03 9627.51 72.03 9630.23 62.65 9633.22 72.03 9633.22 72.07 9633.27 72.03 9643.13 72.03 9634.99 77.5 9634.94 77.5 9635.03 77.59"/>
        <polygon class="cls-3" points="9635.03 126.2 9638.37 135.48 9630.44 129.62 9630.42 129.62 9630.42 129.62 9622.54 135.48 9625.85 126.2 9625.92 126.1 9625.87 126.1 9617.75 120.63 9627.51 120.63 9630.23 111.25 9633.22 120.63 9633.22 120.63 9633.27 120.63 9643.13 120.63 9634.99 126.1 9634.94 126.1 9635.03 126.2"/>
        <polygon class="cls-3" points="9635.03 174.8 9638.37 184.13 9630.44 178.28 9630.42 178.23 9630.42 178.28 9622.54 184.13 9625.85 174.8 9625.92 174.75 9625.87 174.75 9617.75 169.23 9627.51 169.28 9630.23 159.9 9633.22 169.23 9633.22 169.28 9633.27 169.28 9643.13 169.23 9634.99 174.75 9634.94 174.75 9635.03 174.8"/>
        <polygon class="cls-3" points="9635.03 223.45 9638.37 232.78 9630.44 226.93 9630.42 226.88 9630.42 226.93 9622.54 232.78 9625.85 223.45 9625.92 223.4 9625.87 223.4 9617.75 217.93 9627.51 217.93 9630.23 208.55 9633.22 217.93 9633.22 217.98 9633.27 217.93 9643.13 217.93 9634.99 223.4 9634.94 223.4 9635.03 223.45"/>
        <polygon class="cls-3" points="9635.03 29.23 9638.37 38.51 9630.44 32.7 9630.42 32.66 9630.42 32.7 9622.54 38.51 9625.85 29.23 9625.92 29.13 9625.87 29.13 9617.75 23.66 9627.51 23.66 9630.23 14.28 9633.22 23.66 9633.22 23.71 9633.27 23.66 9643.13 23.66 9634.99 29.13 9634.94 29.13 9635.03 29.23"/>
      </g>
      <g>
        <polygon class="cls-3" points="9583.67 77.59 9586.95 86.88 9579.1 81.07 9579.05 81.02 9579.05 81.07 9571.15 86.88 9574.46 77.59 9574.53 77.5 9574.48 77.5 9566.39 72.03 9576.15 72.03 9578.81 62.65 9581.86 72.03 9581.86 72.07 9581.86 72.03 9591.76 72.03 9583.6 77.5 9583.57 77.5 9583.67 77.59"/>
        <polygon class="cls-3" points="9583.67 126.2 9586.95 135.48 9579.1 129.62 9579.05 129.62 9579.05 129.62 9571.15 135.48 9574.46 126.2 9574.53 126.1 9574.48 126.1 9566.39 120.63 9576.15 120.63 9578.81 111.25 9581.86 120.63 9581.86 120.63 9581.86 120.63 9591.76 120.63 9583.6 126.1 9583.57 126.1 9583.67 126.2"/>
        <polygon class="cls-3" points="9583.67 174.8 9586.95 184.13 9579.1 178.28 9579.05 178.23 9579.05 178.28 9571.15 184.13 9574.46 174.8 9574.53 174.75 9574.48 174.75 9566.39 169.23 9576.15 169.28 9578.81 159.9 9581.86 169.23 9581.86 169.28 9581.86 169.28 9591.76 169.23 9583.6 174.75 9583.57 174.75 9583.67 174.8"/>
        <polygon class="cls-3" points="9583.67 223.45 9586.95 232.78 9579.1 226.93 9579.05 226.88 9579.05 226.93 9571.15 232.78 9574.46 223.45 9574.53 223.4 9574.48 223.4 9566.39 217.93 9576.15 217.93 9578.81 208.55 9581.86 217.93 9581.86 217.98 9581.86 217.93 9591.76 217.93 9583.6 223.4 9583.57 223.4 9583.67 223.45"/>
        <polygon class="cls-3" points="9583.67 29.23 9586.95 38.51 9579.1 32.7 9579.05 32.66 9579.05 32.7 9571.15 38.51 9574.46 29.23 9574.53 29.13 9574.48 29.13 9566.39 23.66 9576.15 23.66 9578.81 14.28 9581.86 23.66 9581.86 23.71 9581.86 23.66 9591.76 23.66 9583.6 29.13 9583.57 29.13 9583.67 29.23"/>
      </g>
      <g>
        <polygon class="cls-3" points="9533.38 77.59 9536.68 86.88 9528.78 81.07 9528.76 81.02 9528.73 81.07 9520.86 86.88 9524.16 77.59 9524.26 77.5 9524.21 77.5 9516.07 72.03 9525.83 72.03 9528.54 62.65 9531.57 72.03 9531.57 72.07 9531.59 72.03 9541.47 72.03 9533.3 77.5 9533.28 77.5 9533.38 77.59"/>
        <polygon class="cls-3" points="9533.38 126.2 9536.68 135.48 9528.78 129.62 9528.76 129.62 9528.73 129.62 9520.86 135.48 9524.16 126.2 9524.26 126.1 9524.21 126.1 9516.07 120.63 9525.83 120.63 9528.54 111.25 9531.57 120.63 9531.57 120.63 9531.59 120.63 9541.47 120.63 9533.3 126.1 9533.28 126.1 9533.38 126.2"/>
        <polygon class="cls-3" points="9533.38 174.8 9536.68 184.13 9528.78 178.28 9528.76 178.23 9528.73 178.28 9520.86 184.13 9524.16 174.8 9524.26 174.75 9524.21 174.75 9516.07 169.23 9525.83 169.28 9528.54 159.9 9531.57 169.23 9531.57 169.28 9531.59 169.28 9541.47 169.23 9533.3 174.75 9533.28 174.75 9533.38 174.8"/>
        <polygon class="cls-3" points="9533.38 223.45 9536.68 232.78 9528.78 226.93 9528.76 226.88 9528.73 226.93 9520.86 232.78 9524.16 223.45 9524.26 223.4 9524.21 223.4 9516.07 217.93 9525.83 217.93 9528.54 208.55 9531.57 217.93 9531.57 217.98 9531.59 217.93 9541.47 217.93 9533.3 223.4 9533.28 223.4 9533.38 223.45"/>
        <polygon class="cls-3" points="9533.38 29.23 9536.68 38.51 9528.78 32.7 9528.76 32.66 9528.73 32.7 9520.86 38.51 9524.16 29.23 9524.26 29.13 9524.21 29.13 9516.07 23.66 9525.83 23.66 9528.54 14.28 9531.57 23.66 9531.57 23.71 9531.59 23.66 9541.47 23.66 9533.3 29.13 9533.28 29.13 9533.38 29.23"/>
      </g>
      <g>
        <polygon class="cls-3" points="9482.22 77.59 9485.53 86.88 9477.65 81.07 9477.61 81.02 9477.61 81.07 9469.71 86.88 9473.04 77.59 9473.11 77.5 9473.08 77.5 9464.9 72.03 9474.7 72.03 9477.37 62.65 9480.42 72.03 9480.42 72.07 9480.42 72.03 9490.32 72.03 9482.18 77.5 9482.13 77.5 9482.22 77.59"/>
        <polygon class="cls-3" points="9482.22 126.2 9485.53 135.48 9477.65 129.62 9477.61 129.62 9477.61 129.62 9469.71 135.48 9473.04 126.2 9473.11 126.1 9473.08 126.1 9464.9 120.63 9474.7 120.63 9477.37 111.25 9480.42 120.63 9480.42 120.63 9480.42 120.63 9490.32 120.63 9482.18 126.1 9482.13 126.1 9482.22 126.2"/>
        <polygon class="cls-3" points="9482.22 174.8 9485.53 184.13 9477.65 178.28 9477.61 178.23 9477.61 178.28 9469.71 184.13 9473.04 174.8 9473.11 174.75 9473.08 174.75 9464.9 169.23 9474.7 169.28 9477.37 159.9 9480.42 169.23 9480.42 169.28 9480.42 169.28 9490.32 169.23 9482.18 174.75 9482.13 174.75 9482.22 174.8"/>
        <polygon class="cls-3" points="9482.22 223.45 9485.53 232.78 9477.65 226.93 9477.61 226.88 9477.61 226.93 9469.71 232.78 9473.04 223.45 9473.11 223.4 9473.08 223.4 9464.9 217.93 9474.7 217.93 9477.37 208.55 9480.42 217.93 9480.42 217.98 9480.42 217.93 9490.32 217.93 9482.18 223.4 9482.13 223.4 9482.22 223.45"/>
        <polygon class="cls-3" points="9482.22 29.23 9485.53 38.51 9477.65 32.7 9477.61 32.66 9477.61 32.7 9469.71 38.51 9473.04 29.23 9473.11 29.13 9473.08 29.13 9464.9 23.66 9474.7 23.66 9477.37 14.28 9480.42 23.66 9480.42 23.71 9480.42 23.66 9490.32 23.66 9482.18 29.13 9482.13 29.13 9482.22 29.23"/>
      </g>
    </g>
  </g>
</svg>